<?xml version="1.0" standalone="no"?>
<!DOCTYPE svg PUBLIC "-//W3C//DTD SVG 1.1//EN" "http://www.w3.org/Graphics/SVG/1.1/DTD/svg11.dtd" >
<svg xmlns="http://www.w3.org/2000/svg" xmlns:xlink="http://www.w3.org/1999/xlink" version="1.1">
<metadata>
Created by FontForge 20170731 at Tue Apr 25 01:19:05 2023
 By Aleksey,,,
Copyright (c) 2023, Aleksei Poteichuk
</metadata>
<defs>
<font id="Santello-Regular" horiz-adv-x="560" >
  <font-face 
    font-family="Santello Regular"
    font-weight="400"
    font-stretch="normal"
    units-per-em="1000"
    panose-1="0 0 0 0 0 0 0 0 0 0"
    ascent="800"
    descent="-200"
    x-height="500"
    cap-height="700"
    bbox="-39 -279 1046 932"
    underline-thickness="50"
    underline-position="-175"
    unicode-range="U+000D-27E9"
  />
<missing-glyph horiz-adv-x="250" 
 />
    <glyph glyph-name=".notdef" horiz-adv-x="250" 
 />
    <glyph glyph-name=".null" horiz-adv-x="0" 
 />
    <glyph glyph-name=".null" horiz-adv-x="0" 
 />
    <glyph glyph-name="uni000D" unicode="&#xd;" horiz-adv-x="250" 
 />
    <glyph glyph-name="space" unicode=" " horiz-adv-x="288" 
 />
    <glyph glyph-name="exclam" unicode="!" horiz-adv-x="202" 
d="M151 700l-13 -512l-74 1l-13 511h100zM151 100v-100h-100v100h100z" />
    <glyph glyph-name="quotedbl" unicode="&#x22;" horiz-adv-x="372" 
d="M145 700v-100l-13 -120h-53l-14 120v100h80zM306 700v-100l-13 -120h-53l-14 120v100h80z" />
    <glyph glyph-name="numbersign" unicode="#" horiz-adv-x="747" 
d="M414 700l-60 -175h162l60 175h87l-60 -175h129l-27 -74h-127l-63 -184h135l-27 -74h-134l-65 -193h-88l66 193h-162l-66 -193h-87l66 193h-132l26 74h132l63 184h-139l26 74h138l60 175h87zM428 267l63 184h-162l-63 -184h162z" />
    <glyph glyph-name="dollar" unicode="$" horiz-adv-x="583" 
d="M334 793v-87q94 -14 169 -76l-60 -75q-42 36 -83 52t-79 16h-1q-51 0 -84 -25q-33 -26 -33 -67q0 -26 8 -46q7 -20 24.5 -37t46.5 -31q29 -15 72 -30q111 -38 160 -86q48 -48 48 -123v0q0 -35 -14 -67q-15 -31 -40 -56q-25 -24 -59.5 -41t-74.5 -22v-85h-89v85
q-60 5 -108 25q-47 20 -96 58l64 77q42 -37 88 -55q47 -17 95 -17q62 0 97 27t35 70v0q0 25 -7 44q-8 18 -28 34q-21 16 -57 32q-37 15 -94 34q-84 28 -126 79q-43 50 -43 121q0 76 47 126q47 51 133 61v85h89z" />
    <glyph glyph-name="percent" unicode="%" horiz-adv-x="790" 
d="M212 708q36 0 66.5 -12t53 -33.5t35.5 -51.5t13 -67q0 -36 -13 -66t-35.5 -51.5t-53 -33.5t-66.5 -12t-66.5 12t-53 33.5t-35 51.5t-12.5 66q0 37 12.5 67t34.5 51.5t53 33.5t67 12zM692 700l-507 -700h-98l507 700h98zM212 633q-40 0 -64 -24t-24 -65q0 -40 24 -64
q24 -25 64 -25q41 0 65 25q25 24 25 64q0 41 -25 65q-24 24 -65 24zM577 319q36 0 66.5 -12t53 -33.5t35.5 -51.5t13 -66q0 -37 -13 -67t-35.5 -51.5t-53 -33.5t-66.5 -12t-66.5 12t-53 33.5t-35 51.5t-12.5 67q0 36 12.5 66t34.5 51.5t53 33.5t67 12zM577 245
q-41 0 -65 -24t-24 -65q0 -42 24 -65.5t65 -23.5q42 0 65.5 23.5t23.5 65.5t-23.5 65.5t-65.5 23.5z" />
    <glyph glyph-name="ampersand" unicode="&#x26;" horiz-adv-x="642" 
d="M308 710q89 0 141.5 -48.5t59.5 -136.5v-23h-90q-2 61 -31 94q-28 32 -75 32h-3q-52 0 -84 -28q-31 -29 -31 -74q0 -47 31 -75q30 -28 82 -28h69v-82h-73q-68 0 -110 -35.5t-42 -95.5q0 -63 45 -100q40 -34 97 -34h4h7q62 0 101 32t42 87h-143v76h316v-76h-82l-2 -13
q-11 -82 -73 -136q-65 -56 -161 -56h-9q-48 1 -89 15q-47 15 -79 46q-30 28 -48 68q-18 39 -18 87q0 70 40 120q37 47 95 62q-40 17 -65 52q-27 39 -27 92q0 39 15 72q15 32 42 56q27 23 64.5 36.5t83.5 13.5z" />
    <glyph glyph-name="quotesingle" unicode="'" horiz-adv-x="211" 
d="M145 700v-100l-13 -120h-53l-14 120v100h80z" />
    <glyph glyph-name="parenleft" unicode="(" horiz-adv-x="342" 
d="M284 845q46 -41 48 -42q-26 -29 -44 -55q-38 -54 -63 -118q-26 -64 -39 -137q-15 -80 -15 -169q0 -90 15 -169q13 -74 39 -138q25 -64 63 -118q18 -26 44 -55q-2 -1 -48 -42q-35 36 -65 78q-38 51 -65 106q-34 69 -54 149.5t-20 185.5q0 110 23 202q17 69 51 137
q27 56 64 106q31 43 66 79z" />
    <glyph glyph-name="parenright" unicode=")" horiz-adv-x="342" 
d="M58.0176 -197.948q-45.9971 40.9971 -47.9971 41.9971q25.998 28.998 43.9971 54.9971q37.998 53.9961 62.9961 117.992q25.998 63.9961 38.998 136.992q14.999 79.9951 14.999 168.989q0 89.9951 -14.999 168.99q-13 73.9951 -38.998 137.991
q-24.998 63.9961 -62.9961 117.993q-17.999 25.998 -43.9971 54.9961q2 1 47.9971 41.998q34.998 -35.998 64.9961 -77.9961q37.9971 -50.9961 64.9961 -105.993q33.998 -68.9961 53.9961 -149.491q19.999 -80.4941 19.999 -185.488q0 -109.993 -22.999 -201.987
q-16.998 -68.9961 -50.9961 -136.992q-26.999 -55.9961 -63.9961 -105.993q-30.998 -42.9971 -65.9961 -78.9951z" />
    <glyph glyph-name="asterisk" unicode="*" horiz-adv-x="539" 
d="M313 700l-12 -157l145 62l28 -83l-153 -39l103 -120l-71 -52l-84 137l-83 -135l-71 51l102 119l-152 38l27 84l145 -62l-12 157h88z" />
    <glyph glyph-name="plus" unicode="+" horiz-adv-x="570" 
d="M325 575v-185h185v-80h-185v-185h-80v185h-185v80h185v185h80z" />
    <glyph glyph-name="comma" unicode="," horiz-adv-x="231" 
d="M166 100v-100l-69 -120h-46l40 120h-25v100h100z" />
    <glyph glyph-name="hyphen" unicode="-" horiz-adv-x="390" 
d="M325 290v-80h-260v80h260z" />
    <glyph glyph-name="period" unicode="." horiz-adv-x="231" 
d="M166 100v-100h-100v100h100z" />
    <glyph glyph-name="slash" unicode="/" horiz-adv-x="364" 
d="M324 700l-248 -940h-91l248 940h91z" />
    <glyph glyph-name="zero" unicode="0" horiz-adv-x="586" 
d="M116 90q-32 48 -50 114t-18 146t18 146t50 114q33 47 78 73.5t99.5 26.5t99.5 -26.5t77 -73.5q33 -48 51 -114t18 -146t-18 -146t-51 -114q-32 -47 -77 -73.5t-99.5 -26.5t-99.5 26.5t-78 73.5zM232 99q27 -19 61 -19t62 19q27 19 46.5 54.5t30.5 85.5t11 111.5
t-11 110.5q-11 50 -30.5 85.5t-46.5 54.5q-28 19 -62 19t-61 -19q-28 -19 -47.5 -54.5t-30.5 -85.5q-10 -49 -10 -110.5t10 -111.5q11 -50 30.5 -85.5t47.5 -54.5z" />
    <glyph glyph-name="one" unicode="1" horiz-adv-x="360" 
d="M265 0h-96v584l-134 -58v87l230 99v-712z" />
    <glyph glyph-name="two" unicode="2" horiz-adv-x="524" 
d="M51 480v18q0 47 17 86q16 39 46 67q29 28 68.5 43.5t84.5 15.5q47 0 85 -16t65 -42t42 -61t15 -73v0q0 -45 -20 -86q-19 -42 -52 -82l-211 -262h286v-88h-430v52l292 360q15 19 28 43q13 25 13 57q0 45 -29 77q-29 31 -82 31q-54 0 -87 -34q-33 -35 -35 -88v-18h-96z" />
    <glyph glyph-name="three" unicode="3" horiz-adv-x="518" 
d="M57 510q0 43 15 79q16 37 43 64t64 42t80 15q41 0 76 -14q35 -13 60 -38q26 -24 40 -57q15 -33 15 -72q0 -29 -8 -56q-8 -28 -23 -49q-14 -22 -35 -37t-46 -19q71 -11 102 -58t31 -110q0 -47 -16 -86q-15 -39 -42 -66q-28 -28 -66 -43t-83 -15q-47 0 -87 15.5t-68 44.5
q-29 28 -45 67q-16 38 -16 85h96q0 -55 33 -89t86 -34q52 0 82 33q30 32 30 88q0 55 -30 88q-30 32 -82 32h-70v88h67q43 0 71 32q29 31 29 78t-29 76q-30 29 -77 29q-48 0 -75 -30q-28 -30 -28 -82z" />
    <glyph glyph-name="four" unicode="4" horiz-adv-x="582" 
d="M458 700v-497h77v-86h-77v-117h-96v117h-330v50l374 533h52zM166 203h196v280z" />
    <glyph glyph-name="five" unicode="5" horiz-adv-x="584" 
d="M461 700v-88h-256l-11 -159q22 12 50 19q27 7 57 7q51 0 92 -19t69 -52q29 -33 44 -77q15 -45 15 -96v0v-1q0 -54 -17 -98q-17 -45 -48 -77.5t-74 -49.5q-43 -18 -95 -18q-47 0 -89 14q-41 15 -74 40.5t-56 61.5q-22 36 -31 79l92 29q5 -30 19 -55q15 -26 36 -44t48 -28
q26 -11 56 -11q63 0 100 43t37 115q0 73 -39 115.5t-107 42.5q-72 0 -113 -49h-72l26 356h341z" />
    <glyph glyph-name="six" unicode="6" horiz-adv-x="566" 
d="M414 700l-153 -240q11 1 22 1q53 0 96.5 -17t74.5 -48q31 -30 48 -74q17 -43 17 -96t-17 -97q-17 -43 -48 -74t-74 -48q-44 -17 -97 -17v0q-53 0 -96 17q-44 17 -75 48t-47 74q-17 44 -17 97q0 86 44 147l209 327h113zM282 375q-32 0 -58 -12t-44 -32t-27 -47
q-10 -26 -10 -56q0 -31 10 -59q10 -27 28.5 -48t45.5 -33q26 -12 59 -12q30 0 56 11q25 11 43.5 31t28.5 47t10 59q0 34 -11 61q-10 28 -29 48t-45 31t-57 11z" />
    <glyph glyph-name="seven" unicode="7" horiz-adv-x="525" 
d="M488 700v-52l-310 -648h-105l293 612h-329v88h451z" />
    <glyph glyph-name="eight" unicode="8" horiz-adv-x="536" 
d="M268 710q43 0 78 -13q36 -14 61 -38q26 -25 39 -59q14 -34 14 -76q0 -48 -18 -82q-18 -33 -50 -53q46 -28 71 -75q26 -48 26 -110q0 -49 -16 -88q-16 -40 -45 -68q-28 -28 -69 -43t-91 -15t-91 15q-40 15 -69 43t-45 68q-15 39 -15 88q0 62 25 109q25 48 70 75
q-31 21 -49 54t-18 82q0 41 14 75.5t39 59.5q25 24 60.5 37.5t78.5 13.5zM268 624q-48 0 -72 -27q-25 -27 -25 -71q0 -50 28 -76q29 -27 69 -27t68 27q29 27 29 77q0 44 -25 70.5t-72 26.5zM270 335q-28 0 -51 -10t-40 -27.5t-27 -41.5q-9 -24 -9 -52q0 -56 35 -92t90 -36
q56 0 91 36t35 94q0 57 -35 93q-34 36 -89 36z" />
    <glyph glyph-name="nine" unicode="9" horiz-adv-x="566" 
d="M153.025 0.0429688l152.99 239.985q-10.999 -1 -21.998 -1q-52.9971 0 -96.4941 16.999q-43.498 16.999 -74.4961 47.9971q-30.998 29.998 -47.9971 73.9951q-16.999 42.9971 -16.999 95.9941t16.999 96.9941q16.999 42.9971 47.9971 73.9951
q30.998 30.999 73.9961 47.9971q43.9971 16.999 96.9941 16.999v0q52.9961 0 95.9941 -16.999q43.9971 -16.998 74.9951 -47.9971q30.998 -30.998 46.9971 -73.9951q16.999 -43.9971 16.999 -96.9941q0 -85.9941 -43.9971 -146.991l-208.987 -326.979h-112.993z
M285.018 325.022q31.998 0 57.9961 12q25.998 11.999 43.9971 31.998q17.999 19.998 26.999 46.9971q9.99902 25.998 9.99902 55.9961q0 30.998 -9.99902 58.9971q-10 26.998 -28.499 47.9971q-18.499 20.998 -45.4971 32.998q-25.998 11.999 -58.9961 11.999
q-29.998 0 -55.9971 -11q-24.998 -10.999 -43.4971 -30.998q-18.499 -19.998 -28.498 -46.9971q-10 -26.998 -10 -58.9961q0 -33.998 11 -60.9961q9.99902 -27.998 28.998 -47.9971t44.9971 -30.998q25.999 -11 56.9971 -11z" />
    <glyph glyph-name="colon" unicode=":" horiz-adv-x="231" 
d="M165 500v-100h-100v100h100zM165 100v-100h-100v100h100z" />
    <glyph glyph-name="semicolon" unicode=";" horiz-adv-x="231" 
d="M163 500v-100h-100v100h100zM166 100v-100l-69 -120h-46l40 120h-25v100h100z" />
    <glyph glyph-name="less" unicode="&#x3c;" horiz-adv-x="496" 
d="M396 128l-356 222l356 224l40 -64l-255 -160l255 -159z" />
    <glyph glyph-name="equal" unicode="=" horiz-adv-x="580" 
d="M515 479v-80h-450v80h450zM515 301v-80h-450v80h450z" />
    <glyph glyph-name="greater" unicode="&#x3e;" horiz-adv-x="496" 
d="M60 191l255 159l-255 160l40 64l356 -224l-356 -222z" />
    <glyph glyph-name="question" unicode="?" horiz-adv-x="466" 
d="M233 710q43 0 78 -13q36 -14 61 -38q26 -24 39 -57q14 -34 14 -73q0 -28 -6 -50q-7 -22 -17.5 -40t-24 -33t-27.5 -29q-27 -28 -49 -59t-22 -79v-50h-96v50q0 36 8 64q9 29 22 52q14 23 30 41q16 19 32 36q22 23 38 44t16 47q0 47 -25 74q-24 27 -71 27t-71 -28
q-25 -27 -25 -74v-42h-96v43q0 42 14 76q14 35 39 59q25 25 61 39q35 13 78 13zM281 100v-100h-100v100h100z" />
    <glyph glyph-name="at" unicode="@" horiz-adv-x="904" 
d="M459 646q83 0 156 -26t127 -74t85.5 -117t31.5 -156q0 -42 -9 -83q-8 -42 -27 -75q-19 -34 -50 -54.5t-75 -20.5q-17 0 -35 2t-35 10t-33 23q-15 15 -27 41q-13 -35 -53 -57q-40 -21 -87 -21q-40 0 -71 16q-31 15 -53 42q-21 27 -32 63q-11 35 -11 74q0 40 11 75t33 62
t53.5 43t72.5 16q20 0 41 -5q21 -4 39.5 -12t32.5 -20t20 -28v50h73v-233q0 -10 2 -22.5t8 -22.5q7 -11 18.5 -18t30.5 -7q30 0 48 16q17 16 26.5 40t13 50.5t3.5 48.5q0 78 -28 136q-27 59 -72 98q-46 39 -105 59t-123 20q-72 0 -134 -24t-108 -68t-73 -106
q-26 -63 -26 -140q0 -81 28 -144t75 -107q46 -44 107 -68q60 -24 124 -26v-67q-79 2 -152 30.5t-130 80.5q-56 53 -90 129q-34 75 -34 172v0q0 92 31 167q32 74 88 127q55 53 131 82t163 29zM449 359q-56 0 -83 -36q-26 -35 -26 -88q0 -26 6 -49t19 -40.5t34 -27.5
q20 -10 49 -10q58 0 85 36q28 37 28 91q0 53 -28 88q-27 36 -84 36z" />
    <glyph glyph-name="A" unicode="A" horiz-adv-x="690" 
d="M388 700l282 -700h-106l-68 171h-302l-68 -171h-106l282 700h86zM230 261h230l-115 287z" />
    <glyph glyph-name="B" unicode="B" horiz-adv-x="612" 
d="M307 700q64 0 107 -15t69 -41t37.5 -59.5t11.5 -70.5q0 -97 -74 -144q56 -26 82.5 -71.5t26.5 -102.5q0 -39 -13 -75q-14 -35 -43 -62q-30 -27 -78 -43t-118 -16h-240v700h232zM174 401h135q67 0 97 27t30 81q0 23 -6 42t-20 33q-15 13 -39.5 20.5t-62.5 7.5h-134v-211z
M174 88h146q42 0 70 8q29 8 46 23t24 36t7 47t-7 47t-24 36q-17 16 -46 24q-28 8 -70 8h-146v-229z" />
    <glyph glyph-name="C" unicode="C" horiz-adv-x="696" 
d="M574 534q-36 41 -86 63q-49 23 -106 23q-52 0 -96 -20t-76 -55q-32 -36 -50 -86q-18 -49 -18 -109q0 -61 18 -110q19 -50 52 -86q33 -35 78 -55q46 -19 100 -19q70 0 121 30q51 31 82 79l73 -53q-47 -68 -115 -107q-69 -39 -161 -39q-76 0 -140 27q-64 26 -110.5 74
t-73.5 114q-26 66 -26 145t26 146q27 66 72 113q46 48 108 75q63 26 135 26q84 0 152 -33t110 -82z" />
    <glyph glyph-name="D" unicode="D" horiz-adv-x="691" 
d="M286 700q81 0 148 -26q67 -25 115 -72q48 -46 75 -110q27 -65 27 -142t-27 -142q-27 -64 -75 -110q-48 -47 -115 -72q-67 -26 -148 -26h-211v700h211zM175 90h111q59 0 108 19q48 18 82.5 52t53.5 82t19 107t-19 107t-53.5 82t-82.5 52q-49 19 -108 19h-111v-520z" />
    <glyph glyph-name="E" unicode="E" horiz-adv-x="541" 
d="M482 700v-90h-307v-197h265v-90h-265v-233h320v-90h-420v700h407z" />
    <glyph glyph-name="F" unicode="F" horiz-adv-x="527" 
d="M482 700v-90h-307v-209h264v-90h-264v-311h-100v700h407z" />
    <glyph glyph-name="G" unicode="G" horiz-adv-x="775" 
d="M379 710q78 0 147 -30q70 -31 117 -86l-69 -60q-37 41 -87 64q-49 22 -105 22q-53 0 -97 -20t-76 -56q-31 -36 -49 -85q-18 -50 -18 -109q0 -61 19 -110q18 -50 53 -86q34 -35 82 -55q48 -19 106 -19q45 0 85 17t71 47q31 29 50 69t23 86h-254v90h358q0 -89 -24 -163
q-24 -73 -68 -126q-45 -52 -108 -81q-64 -29 -143 -29q-78 0 -142.5 27t-110.5 75q-47 48 -73 114t-26 144t26 144q25 66 71 114q45 48 107 75t135 27z" />
    <glyph glyph-name="H" unicode="H" horiz-adv-x="710" 
d="M175 700v-277h360v277h100v-700h-100v333h-360v-333h-100v700h100z" />
    <glyph glyph-name="I" unicode="I" horiz-adv-x="250" 
d="M175 700v-700h-100v700h100z" />
    <glyph glyph-name="J" unicode="J" horiz-adv-x="440" 
d="M365 700v-500q0 -101 -49 -155q-49 -55 -135 -55q-48 0 -86 16q-37 16 -60 45l66 68q28 -39 77 -39q43 0 65 30q22 29 22 86v504h100z" />
    <glyph glyph-name="K" unicode="K" horiz-adv-x="650" 
d="M173 700v-350l308 350h114l-261 -296l315 -405h-124l-257 330l-95 -108v-221h-98v700h98z" />
    <glyph glyph-name="L" unicode="L" horiz-adv-x="483" 
d="M175 700v-610h292v-90h-392v700h100z" />
    <glyph glyph-name="M" unicode="M" horiz-adv-x="823" 
d="M172 700l240 -501l240 501h96v-700h-98v493l-192 -403h-92l-192 403v-493h-98v700h96z" />
    <glyph glyph-name="N" unicode="N" horiz-adv-x="706" 
d="M173 700l360 -530v530h98v-700h-98l-360 531v-531h-98v700h98z" />
    <glyph glyph-name="O" unicode="O" horiz-adv-x="810" 
d="M405 710q81 0 148 -26q67 -27 115 -74q49 -48 75.5 -114.5t26.5 -146t-27 -145.5q-26 -66 -75 -114q-48 -47 -115 -74q-67 -26 -148 -26t-148 26q-67 27 -115 74q-48 48 -75 114t-27 145.5t27 146t75 114.5q48 47 115 74q67 26 148 26zM405 620q-59 0 -108 -19
q-48 -20 -83 -55q-34 -35 -53 -85t-19 -111.5t19 -111t53 -84.5q35 -36 83 -55q49 -19 108 -19q60 0 108 19q49 19 83 55q34 35 53 84.5t19 111t-19 111.5t-53 85t-83 55q-48 19 -108 19z" />
    <glyph glyph-name="P" unicode="P" horiz-adv-x="584" 
d="M298 700q64 0 111 -16.5t77 -45.5t44 -67t14 -80.5t-14 -80.5t-44 -67t-77 -45.5t-111 -16.5h-124v-281h-99v700h223zM174 371h124q77 0 111 31q35 32 35 88.5t-35 88.5q-34 31 -111 31h-124v-239z" />
    <glyph glyph-name="Q" unicode="Q" horiz-adv-x="826" 
d="M770 -6v-106l-251 117q-54 -15 -113 -15q-81 0 -148 26.5t-115 73.5q-49 48 -75.5 114t-26.5 146t26.5 146t75.5 114q48 47 115 73.5t148 26.5t148 -26.5t115 -73.5q48 -48 75 -114t27 -146q0 -95 -37 -169.5t-103 -122.5zM215 154q34 -35 83 -55q48 -19 107.5 -19
t108.5 19q48 20 83 55q34 35 53 85t19 111t-19 111t-53 85q-35 36 -83 55q-49 19 -108.5 19t-107.5 -19q-49 -20 -83 -55q-35 -35 -53 -85q-19 -50 -19 -111t19 -111q18 -50 53 -85z" />
    <glyph glyph-name="R" unicode="R" horiz-adv-x="611" 
d="M291 700q65 0 111.5 -16t76.5 -43t44 -64q15 -36 15 -77q0 -65 -36.5 -117t-117.5 -72l207 -311h-117l-200 300h-100v-300h-99v700h216zM174 387h117q77 0 114 30q38 31 38 83t-38 81q-37 29 -114 29h-117v-223z" />
    <glyph glyph-name="S" unicode="S" horiz-adv-x="583" 
d="M283 710q62 0 117 -21q56 -20 103 -60l-60 -74q-42 36 -83 52t-79 16v0q-52 0 -85 -25q-33 -26 -33 -67q0 -26 8 -46q7 -20 24.5 -37t46.5 -31q29 -15 72 -30q112 -38 160 -86t48 -123q0 -39 -17 -73q-18 -35 -48 -60q-31 -26 -72 -41q-40 -15 -87 -15q-40 0 -74 5
q-35 5 -66 15q-30 10 -59 26q-29 17 -58 40l64 77q42 -37 88 -55q47 -18 95 -18q62 0 97 27t36 71v0q0 25 -8 43.5t-28 34.5q-21 16 -57 31q-37 16 -94 35q-84 28 -126.5 78.5t-42.5 121.5q0 42 15 76.5t43 59.5t68 39q41 14 92 14z" />
    <glyph glyph-name="T" unicode="T" horiz-adv-x="606" 
d="M581 700v-90h-228v-610h-100v610h-228v90h556z" />
    <glyph glyph-name="U" unicode="U" horiz-adv-x="711" 
d="M175 700v-385q0 -124 43 -180q42 -55 137 -55t138 55q42 56 42 180v0v385h100v-385q0 -165 -69 -245t-211 -80q-280 0 -280 325v385h100z" />
    <glyph glyph-name="V" unicode="V" horiz-adv-x="646" 
d="M10 700h115l198 -544l198 544h115l-270 -700h-86z" />
    <glyph glyph-name="W" unicode="W" horiz-adv-x="988" 
d="M10 700h101l190 -519l157 519h72l157 -519l190 519h101l-256 -700h-71l-157 517l-157 -517h-71z" />
    <glyph glyph-name="X" unicode="X" horiz-adv-x="644" 
d="M146 700l176 -249l177 249h116l-233 -329l262 -371h-119l-203 287l-202 -287h-119l262 371l-233 329h116z" />
    <glyph glyph-name="Y" unicode="Y" horiz-adv-x="574" 
d="M118 700l169 -291l169 291h117l-236 -382v-318h-100v318l-236 382h117z" />
    <glyph glyph-name="Z" unicode="Z" horiz-adv-x="618" 
d="M553 700v-50l-339 -560h364v-90h-503v50l339 560h-327v90h466z" />
    <glyph glyph-name="bracketleft" unicode="[" horiz-adv-x="340" 
d="M304 778v-78h-129v-822h129v-78h-219v978h219z" />
    <glyph glyph-name="backslash" unicode="\" horiz-adv-x="364" 
d="M131 700l248 -940h-91l-248 940h91z" />
    <glyph glyph-name="bracketright" unicode="]" horiz-adv-x="340" 
d="M35.0186 -199.952v77.9951h128.992v821.949h-128.992v77.9961h218.986v-977.94h-218.986z" />
    <glyph glyph-name="asciicircum" unicode="^" horiz-adv-x="497" 
d="M249 578l-160 -255l-64 40l224 356l222 -356l-63 -40z" />
    <glyph glyph-name="underscore" unicode="_" horiz-adv-x="540" 
d="M475 -57v-80h-410v80h410z" />
    <glyph glyph-name="grave" unicode="`" horiz-adv-x="317" 
d="M251 605l-45 -34l-141 107l74 62z" />
    <glyph glyph-name="a" unicode="a" horiz-adv-x="552" 
d="M78 448q48 32 100 47t103 15q93 0 147 -47q54 -48 54 -142v0v-321h-79l-15 60q-33 -35 -76 -53q-44 -19 -92 -19q-39 0 -71 11q-32 12 -55 32q-23 21 -36 50t-13 65q0 73 50.5 114.5t143.5 41.5h53v-81h-53h-2q-46 0 -71 -19t-25 -54q0 -34 24 -54t64 -20q30 0 59 12
q29 11 51 30t35.5 43.5t13.5 50.5v111q0 103 -113 103q-48 0 -87 -16q-38 -15 -66 -36z" />
    <glyph glyph-name="b" unicode="b" horiz-adv-x="603" 
d="M65 740h93v-313q32 40 76.5 61.5t97.5 21.5q50 0 92.5 -19.5t73 -54t47.5 -82.5q18 -48 18 -104t-18 -104q-17 -48 -48 -82.5t-74 -53.5q-43 -20 -94 -20q-52 0 -96 20t-75 59l-15 -69h-78v740zM202 126q21 -23 49 -36q28 -14 61.5 -14t61.5 14q29 13 49 36q21 23 32 55
q12 32 12 69.5t-11.5 69t-32.5 55.5q-20 23 -49 36q-28 13 -61.5 13t-61.5 -13t-49 -36q-20 -24 -32 -55.5t-12 -69t12 -69.5t32 -55z" />
    <glyph glyph-name="c" unicode="c" horiz-adv-x="531" 
d="M305 510q60 0 109 -20q50 -21 86 -58l-66 -66q-23 27 -56 43q-33 15 -73 15q-37 0 -68 -13t-53 -37q-23 -23 -36 -55q-12 -31 -12 -69q0 -37 13 -69q12 -32 34.5 -55t53.5 -36.5t68 -13.5q40 0 73 16q34 15 56 43l66 -66q-36 -37 -85.5 -58t-109.5 -21q-57 0 -106 20
q-49 19 -84 54q-35 34 -55 82t-20 104q0 57 20 104q20 48 55 83q35 34 84 54q48 19 106 19z" />
    <glyph glyph-name="d" unicode="d" horiz-adv-x="603" 
d="M538 740v-740h-93v73q-32 -40 -77 -61q-44 -22 -97 -22q-50 0 -92 19.5t-73 54t-48 82.5q-18 48 -18 104t18 104q17 48 48 82.5t73 54t92 19.5q53 0 98 -21q44 -22 76 -62v313h93zM180 126q21 -23 49 -36q28 -14 61.5 -14t61.5 13.5t49 36.5q20 23 32 55t12 69.5t-12 69
t-32 55.5q-21 23 -49 36t-61.5 13t-61.5 -13t-49 -36q-21 -24 -32.5 -55.5t-11.5 -69t12 -69.5q11 -32 32 -55z" />
    <glyph glyph-name="e" unicode="e" horiz-adv-x="584" 
d="M292 510q54 0 100.5 -19.5t80 -54t51.5 -82.5q19 -47 19 -104v-36h-313v80h215q-12 59 -52 95q-41 36 -101 36q-36 0 -64.5 -13t-48.5 -36q-21 -23 -32 -54t-11 -68q0 -39 13 -71q12 -33 35 -57q23 -23 54 -37q31 -13 68 -13q31 0 55 8.5t41 19.5q18 11 29 23
q12 12 18 19l70 -51q-25 -31 -50 -51t-51 -32t-54 -17q-29 -5 -62 -5q-56 0 -104 19.5t-83 54.5t-55 83t-20 105q0 56 19 103t52 82q34 34 80 54q46 19 101 19z" />
    <glyph glyph-name="f" unicode="f" horiz-adv-x="367" 
d="M285 740q12 0 20 -1q9 -1 12 -2v-82h-20q-49 0 -67 -29q-17 -29 -17 -76v-50h104v-84h-104v-416h-94v416h-78v84h78v50q0 48 12 83q13 36 36 60q22 23 53 35q30 12 65 12z" />
    <glyph glyph-name="g" unicode="g" horiz-adv-x="603" 
d="M538 500v-563q0 -49 -19 -85t-52 -59.5t-79 -34.5q-46 -12 -101 -12q-33 0 -67 5t-78 18v88q5 -2 20 -7q15 -4 36 -8t46 -7t51 -3h1q28 0 54 4q27 5 48 17t34 32q13 21 13 52v136q-32 -40 -77 -61q-44 -22 -97 -22q-50 0 -92 20q-43 19 -73.5 53.5t-47.5 82.5
q-18 48 -18 104.5t18 103.5q17 48 48 82.5t74 54.5q43 19 94 19q52 0 96 -20t76 -59l14 69h78zM180 126q20 -23 49 -36q28 -13 61.5 -13t61.5 13t49 36q20 23 32 55q12 31 12 69t-12 69.5t-32 55.5q-21 23 -49 36t-61.5 13t-61.5 -13q-29 -13 -49 -36q-21 -24 -32.5 -55.5
t-11.5 -69t12 -69.5q11 -32 32 -55z" />
    <glyph glyph-name="h" unicode="h" 
d="M159 740v-316q25 33 65 60q39 26 97 26q36 0 68 -13t55.5 -38.5t36.5 -63.5q14 -39 14 -89v-306h-94v306q0 59 -24.5 89t-67.5 30q-28 0 -55 -11.5t-48 -29t-34 -39.5q-13 -21 -13 -41v-1v2v-305h-94v740h94z" />
    <glyph glyph-name="i" unicode="i" horiz-adv-x="224" 
d="M159 500v-500h-94v500h94zM65 700h94v-94h-94v94z" />
    <glyph glyph-name="j" unicode="j" horiz-adv-x="226" 
d="M160 500v-500q0 -96 -45 -148t-122 -52q-12 0 -20 1t-11 2v83q9 -1 19 -1q28 0 45 9q16 9 25 25t12 37t3 44v500h94zM66 700h94v-94h-94v94z" />
    <glyph glyph-name="k" unicode="k" horiz-adv-x="539" 
d="M159 740v-482l224 242h116l-187 -201l211 -299h-117l-160 227l-87 -93v-134h-94v740h94z" />
    <glyph glyph-name="l" unicode="l" horiz-adv-x="224" 
d="M159 740v-740h-94v740h94z" />
    <glyph glyph-name="m" unicode="m" horiz-adv-x="855" 
d="M159 500v-75q23 34 62 59q38 26 91 26q-1 0 0 0q49 0 87 -26q39 -26 59 -78q11 19 27 37q15 19 36 34q20 15 46 24t57 9v0q35 0 66 -13q30 -13 52.5 -38.5t34.5 -63.5q13 -39 13 -89v-306h-94v306q0 63 -20 93q-18 25 -65 25h-17q-26 -2 -48 -15q-21 -12 -37 -29t-25 -37
t-9 -37v-306h-94v306q0 63 -21 93q-17 25 -64 25h-17q-26 -2 -48 -15q-22 -12 -38 -29t-25 -37t-9 -37v-306h-94v500h94z" />
    <glyph glyph-name="n" unicode="n" 
d="M144 500l15 -71q25 32 64 56.5t96 24.5q37 0 69 -13q33 -13 56 -39q24 -25 37 -63q14 -39 14 -89v-306h-94v306q0 118 -105 118h-17q-26 -2 -48 -15q-22 -12 -38 -29t-25 -37t-9 -37v-306h-94v500h79z" />
    <glyph glyph-name="o" unicode="o" horiz-adv-x="610" 
d="M305 510q58 0 106 -19q49 -20 84 -54q36 -35 55 -83q20 -47 20 -104q0 -56 -20 -104t-55 -82q-35 -35 -84 -54q-48 -20 -106 -20q-57 0 -106 20q-49 19 -84 54q-35 34 -55 82t-20 104q0 57 20 104q20 48 55 83q35 34 84 54q48 19 106 19zM305 424q-37 0 -68 -13t-53 -37
q-23 -23 -36 -55q-12 -31 -12 -69q0 -37 13 -69q12 -32 34.5 -55t53.5 -36.5t68 -13.5t68 13.5t53.5 36.5t35.5 55q12 32 12 69q0 38 -12 69q-13 32 -36 55q-22 24 -53 37t-68 13z" />
    <glyph glyph-name="p" unicode="p" horiz-adv-x="604" 
d="M333 510q50 0 92.5 -19.5t73 -54t47.5 -82.5q18 -48 18 -104t-18 -104q-17 -48 -47.5 -82.5t-73 -54t-92.5 -19.5q-53 0 -98 22t-77 62v-274h-93v700h93v-74q32 40 77 62t98 22zM203 126q21 -24 49 -37t61.5 -13t61.5 13q29 13 49 37q21 23 32 55q12 31 12 69t-11.5 69.5
t-32.5 54.5q-20 24 -49 37q-28 13 -61.5 13t-61.5 -13t-49 -37q-20 -23 -32 -54.5t-12 -69.5t12 -69q12 -32 32 -55z" />
    <glyph glyph-name="q" unicode="q" horiz-adv-x="603" 
d="M274 510q52 0 96 -20t75 -59l15 69h78v-700h-93v273q-32 -40 -77 -61q-44 -22 -97 -22q-50 0 -92.5 19.5t-73 54t-47.5 82.5q-18 48 -18 104.5t18 103.5q17 48 48 82.5t74 54.5q43 19 94 19zM180 126q20 -23 49 -36q28 -13 61.5 -13t61.5 13t49 36q20 23 32 55
q12 31 12 69t-12 69.5t-32 55.5q-21 23 -49 36t-61.5 13t-61.5 -13q-29 -13 -49 -36q-21 -24 -32.5 -55.5t-11.5 -69t12 -69.5q11 -32 32 -55z" />
    <glyph glyph-name="r" unicode="r" horiz-adv-x="434" 
d="M159 500v-83q29 43 74 68t102 25q45 0 84 -16l-50 -93q-35 17 -68 17q-30 0 -56 -12q-26 -13 -45 -31q-19 -19 -30 -41q-10 -23 -10 -43l-1 -291h-94v500h94z" />
    <glyph glyph-name="s" unicode="s" horiz-adv-x="453" 
d="M228 510q43 0 79 -12q36 -11 71 -36l-45 -72q-45 31 -102 35q-33 0 -52 -14t-19 -42v-1q0 -24 18 -42q19 -17 69 -37q77 -32 111 -67q34 -36 34 -83q0 -31 -13 -58q-13 -28 -36 -48q-22 -20 -52 -31q-31 -12 -65 -12v0q-66 0 -112.5 14.5t-78.5 35.5l41 76q34 -20 66 -30
t75 -10q33 0 56 17t23 41q0 28 -27 45q-28 17 -66 34l-25 12q-60 28 -87 65q-27 36 -27 85q0 65 43 100q44 35 120 35h1z" />
    <glyph glyph-name="t" unicode="t" horiz-adv-x="381" 
d="M212 655v-155h104v-84h-104v-256q0 -27 5 -43t15 -25q10 -8 25 -10q15 -3 35 -3q16 0 24 1v-87q-3 -1 -12 -2q-8 -1 -23 -1q-34 0 -63 8q-30 9 -52.5 28.5t-35 51.5t-12.5 80v258h-78v84h78v155h94z" />
    <glyph glyph-name="u" unicode="u" 
d="M159 500v-306q0 -118 105 -118h18q25 2 47 15q22 12 38 29t25 37t9 37v306h94v-500h-78l-16 71q-25 -32 -64 -56.5t-95 -24.5q-38 0 -70 13t-56 39q-23 25 -37 64q-13 38 -13 88v306h93z" />
    <glyph glyph-name="v" unicode="v" horiz-adv-x="553" 
d="M26 500h102l149 -354l149 354h102l-211 -500h-80z" />
    <glyph glyph-name="w" unicode="w" horiz-adv-x="778" 
d="M31 500h97l106 -346l121 346h69l121 -346l106 346h97l-154 -500h-81l-124 349l-123 -349h-81z" />
    <glyph glyph-name="x" unicode="x" horiz-adv-x="565" 
d="M40 500h116l126 -165l127 165h116l-185 -240l199 -260h-115l-142 184l-141 -184h-115l199 260z" />
    <glyph glyph-name="y" unicode="y" horiz-adv-x="557" 
d="M25 500h102l152 -359l151 359h102l-210 -500q-19 -45 -37 -82t-40 -63t-49 -41q-28 -14 -65 -14q-27 0 -54 10v85q9 -4 20.5 -6t20.5 -2q4 0 9 1q20 1 34 12q14 10 24 26q11 16 19 36q8 19 16 39l8 19z" />
    <glyph glyph-name="z" unicode="z" horiz-adv-x="512" 
d="M453 500v-49l-264 -364h268v-87h-401v50l263 363h-246v87h380z" />
    <glyph glyph-name="braceleft" unicode="{" horiz-adv-x="506" 
d="M441 700h-67q-41 0 -60 -18.5t-19 -73.5v-167q0 -69 -30 -107q-31 -38 -53 -49q22 -11 52.5 -47t30.5 -102v-167q0 -55 18.5 -73t60.5 -18h67v-78h-86q-44 0 -72.5 9t-46 28.5t-24.5 50t-7 72.5v168q0 54 -27 91.5t-93 57.5v16q66 21 93 60q27 38 27 94v171q0 42 7 72
t24.5 49.5t46 29t72.5 9.5h86v-78z" />
    <glyph glyph-name="bar" unicode="|" horiz-adv-x="229" 
d="M159 700v-940h-89v940h89z" />
    <glyph glyph-name="braceright" unicode="}" horiz-adv-x="506" 
d="M65 778h86q44 0 72.5 -9.5t46 -29t24.5 -49.5t7 -72v-171q0 -56 27 -94q27 -39 93 -60v-16q-66 -20 -93 -57.5t-27 -91.5v-168q0 -42 -7 -72.5t-24.5 -50t-46 -28.5t-72.5 -9h-86v78h67q42 0 60.5 18t18.5 73v167q0 66 30.5 102t52.5 47q-22 11 -52 49q-31 38 -31 107
v167q0 55 -19 73.5t-60 18.5h-67v78z" />
    <glyph glyph-name="asciitilde" unicode="~" horiz-adv-x="540" 
d="M175 399q30 0 53 -9.5t43 -20.5t40 -20.5t45 -9.5q28 0 42.5 14t16.5 46h60q0 -72 -32 -105t-85 -33q-30 0 -55 9.5t-47 20.5l-41 20.5t-38 9.5q-25 0 -38 -13q-12 -14 -14 -40h-60q0 69 30 100t80 31z" />
    <glyph glyph-name="exclamdown" unicode="&#xa1;" horiz-adv-x="201" 
d="M51 400v100h100v-100h-100zM51 -200l13 512h74l13 -512h-100z" />
    <glyph glyph-name="section" unicode="&#xa7;" horiz-adv-x="539" 
d="M267 710v0q71 0 114 -39q42 -40 46 -118v-10h-80v10q0 32 -19 56q-22 27 -61 27q-28 0 -47 -14.5t-19 -40.5v0q0 -27 20 -46q17 -15 53 -33q23 -11 57 -24.5t59 -28.5q35 -20 53 -45q20 -27 20 -65v-1q0 -40 -22 -70q-20 -28 -55 -47q20 -16 31 -37q14 -24 14 -55v-1
q0 -29 -11 -54q-11 -26 -32 -45q-21 -18 -51.5 -28.5t-70.5 -10.5q-66 0 -115.5 38.5t-53.5 113.5l1 21h87q-1 -8 -1 -15q0 -39 20 -59q22 -25 66 -25q39 0 56 17q16 17 16 41v1q0 24 -19 40.5t-54 32.5q-25 12 -59.5 25t-60.5 28q-34 20 -54 46t-20 63q0 1 1 1q0 42 23 71
t61 49q-21 17 -35 40q-13 23 -13 56v1q0 26 10 50t29 43q20 19 48 30q29 11 68 11zM166 370v-1q0 -22 14 -40q12 -15 34 -27t50 -22t55 -21q24 12 39 31q14 20 14 44v0q0 21 -12 35.5t-34 26.5q-21 12 -56 26q-19 8 -46 19q-24 -10 -39 -25q-19 -19 -19 -46z" />
    <glyph glyph-name="ordfeminine" unicode="&#xaa;" horiz-adv-x="398" 
d="M85 667q58 38 122 38q61 0 93 -31q33 -30 33 -85v-199h-49l-10 37q-41 -44 -102 -44q-48 0 -77 27t-29 71q0 45 32 70q32 26 89 26h35v-51l-35 1h-1q-29 0 -45 -12t-16 -33q0 -20 14 -32t39 -12q18 0 36 7q17 7 30.5 18.5t21.5 26.5t8 31v67q0 31 -16 47q-16 17 -45 17
q-24 0 -53 -10t-47 -23z" />
    <glyph glyph-name="guillemotleft" unicode="&#xab;" horiz-adv-x="543" 
d="M478 384l-128 -134l128 -134l-47 -47l-171 181l171 181zM282 384l-127 -134l127 -134l-47 -47l-170 181l170 181z" />
    <glyph glyph-name="paragraph" unicode="&#xb6;" horiz-adv-x="691" 
d="M616 700v-940h-94v854h-132v-854h-94v462h-1q-57 0 -103 16t-81.5 46.5t-53 74.5t-17.5 101t18.5 101.5t52 75.5t79.5 47t102 16h324zM134 456q0 -73 38 -110.5t120 -37.5h4v306q-82 0 -122 -42.5t-40 -115.5z" />
    <glyph glyph-name="periodcentered" unicode="&#xb7;" horiz-adv-x="220" 
d="M155 293v-90h-90v90h90z" />
    <glyph glyph-name="ordmasculine" unicode="&#xba;" horiz-adv-x="459" 
d="M112 429q-22 21 -34 51q-12 29 -12 64t12 65q12 29 34 50q22 22 52 34t66 12t66 -12t52 -34q22 -21 34 -50q12 -30 12 -65t-12 -64q-13 -30 -34.5 -51.5t-51.5 -33.5t-66 -12t-66 12t-52 34zM155 467q29 -31 75 -31t75.5 30.5t29.5 77.5t-30 77q-29 30 -75 30t-75.5 -30
t-29.5 -77t30 -77z" />
    <glyph glyph-name="guillemotright" unicode="&#xbb;" horiz-adv-x="544" 
d="M113 431l170 -181l-170 -181l-47 47l127 134l-127 134zM308 431l170 -181l-170 -181l-47 47l127 134l-127 134z" />
    <glyph glyph-name="questiondown" unicode="&#xbf;" horiz-adv-x="465" 
d="M285 700v-100h-100v100h100zM232 -10q-43 0 -78 14q-36 13 -61 37t-39 58q-14 33 -14 73q0 28 7 49q6 22 17 40q10 18 23.5 33t27.5 29q27 28 49 59t22 79v50h96v-50q0 -36 -8 -64q-9 -29 -22 -52t-29 -41q-17 -19 -32 -35q-22 -24 -38 -45q-17 -21 -17 -47q0 -47 25 -74
t71 -27q47 0 72 28q24 28 24 74v42h96v-42q0 -43 -14 -77q-14 -35 -39 -59q-25 -25 -60 -39q-36 -13 -79 -13z" />
    <glyph glyph-name="Agrave" unicode="&#xc0;" horiz-adv-x="691" 
d="M320 892l121 -123l-41 -39l-150 91zM388 700l282 -700h-106l-68 171h-301l-69 -171h-106l282 700h86zM231 261h229l-115 287z" />
    <glyph glyph-name="Aacute" unicode="&#xc1;" horiz-adv-x="691" 
d="M441 821l-150 -91l-41 39l121 123zM388 700l282 -700h-106l-68 171h-301l-69 -171h-106l282 700h86zM231 261h229l-115 287z" />
    <glyph glyph-name="Acircumflex" unicode="&#xc2;" horiz-adv-x="691" 
d="M395 869l101 -109l-27 -30l-123 70l-122 -70l-29 30l102 109h98zM388 700l282 -700h-106l-68 171h-301l-69 -171h-106l282 700h86zM231 261h229l-115 287z" />
    <glyph glyph-name="Atilde" unicode="&#xc3;" horiz-adv-x="691" 
d="M504 859q0 -54 -24.5 -81.5t-70.5 -27.5q-21 0 -38.5 5.5t-32.5 12t-29 12t-29 5.5q-20 0 -26.5 -9.5t-6.5 -25.5h-59q0 57 23 83t67 26q21 0 36.5 -5.5t29 -12.5t28 -12.5t34.5 -5.5q23 0 31.5 9t8.5 27h58zM388 700l282 -700h-106l-68 171h-301l-69 -171h-106l282 700
h86zM231 261h229l-115 287z" />
    <glyph glyph-name="Adieresis" unicode="&#xc4;" horiz-adv-x="691" 
d="M291 860v-100h-100v100h100zM501 860v-100h-100v100h100zM388 700l282 -700h-106l-68 171h-301l-69 -171h-106l282 700h86zM231 261h229l-115 287z" />
    <glyph glyph-name="Aring" unicode="&#xc5;" horiz-adv-x="691" 
d="M346 896q54 0 86 -20.5t32 -61.5t-32 -61.5t-86 -20.5q-55 0 -87 20.5t-32 61.5t32 61.5t87 20.5zM346 847q-27 0 -39 -8q-11 -9 -11 -25t12 -24q11 -9 38 -9t38 8.5t11 24.5t-11 24.5t-38 8.5zM388 700l282 -700h-106l-68 171h-301l-69 -171h-106l282 700h86zM231 261
h229l-115 287z" />
    <glyph glyph-name="AE" unicode="&#xc6;" horiz-adv-x="910" 
d="M851 700v-90h-307v-197h265v-90h-265v-233h320v-90h-420v184h-244l-122 -184h-113l466 700h420zM444 274v276l-184 -276h184z" />
    <glyph glyph-name="Ccedilla" unicode="&#xc7;" horiz-adv-x="696" 
d="M574 534q-36 41 -86 63q-49 23 -106 23q-52 0 -96 -20t-76 -55q-32 -36 -50 -86q-18 -49 -18 -109q0 -61 18 -110q19 -50 52 -86q33 -35 78 -55q46 -19 100 -19q70 0 121 30t82 79l73 -53q-42 -61 -100 -98q-59 -38 -137 -46v-42q52 -7 72 -31.5t20 -56.5
q0 -44 -34.5 -69t-85.5 -25q-35 0 -61.5 10.5t-40.5 26.5l34 44q11 -9 26.5 -16t35.5 -7q23 0 35.5 10t12.5 28q0 14 -10 26t-44 12h-18v88q-72 4 -132.5 32t-104.5 75t-69 111.5t-25 141.5q0 79 26 146q27 66 72 113q46 48 108 75q63 26 135 26q84 0 152 -33t110 -82z" />
    <glyph glyph-name="Egrave" unicode="&#xc8;" horiz-adv-x="541" 
d="M247 894l121 -123l-41 -39l-150 91zM482 700v-90h-307v-197h265v-90h-265v-233h320v-90h-420v700h407z" />
    <glyph glyph-name="Eacute" unicode="&#xc9;" horiz-adv-x="541" 
d="M383 823l-150 -91l-41 39l121 123zM482 700v-90h-307v-197h265v-90h-265v-233h320v-90h-420v700h407z" />
    <glyph glyph-name="Ecircumflex" unicode="&#xca;" horiz-adv-x="541" 
d="M330 869l104 -96l-27 -30l-126 57l-125 -57l-29 30l105 96h98zM482 700v-90h-307v-197h265v-90h-265v-233h320v-90h-420v700h407z" />
    <glyph glyph-name="Edieresis" unicode="&#xcb;" horiz-adv-x="541" 
d="M235 879v-100h-100v100h100zM435 879v-100h-100v100h100zM482 700v-90h-307v-197h265v-90h-265v-233h320v-90h-420v700h407z" />
    <glyph glyph-name="Igrave" unicode="&#xcc;" horiz-adv-x="250" 
d="M101 892l121 -123l-41 -39l-150 91zM175 700v-700h-100v700h100z" />
    <glyph glyph-name="Iacute" unicode="&#xcd;" horiz-adv-x="250" 
d="M220 821l-150 -91l-41 39l121 123zM173 700v-700h-100v700h100z" />
    <glyph glyph-name="Icircumflex" unicode="&#xce;" horiz-adv-x="250" 
d="M175 869l101 -109l-27 -30l-123 70l-122 -70l-30 30l103 109h98zM174 700v-700h-100v700h100z" />
    <glyph glyph-name="Idieresis" unicode="&#xcf;" horiz-adv-x="252" 
d="M-29 860h100v-100h-100v100zM181 860h100v-100h-100v100zM175 700v-700h-100v700h100z" />
    <glyph glyph-name="Eth" unicode="&#xd0;" horiz-adv-x="724" 
d="M319 700q81 0 148 -26q67 -25 115 -72q48 -46 75 -110q27 -65 27 -142t-27 -142q-27 -64 -75 -110q-48 -47 -115 -72q-67 -26 -148 -26h-211v327h-75v86h75v287h211zM208 413h204v-86h-204v-237h111q59 0 108 19q48 18 82.5 52t53.5 82t19 107t-19 107t-53.5 82t-82.5 52
q-49 19 -108 19h-111v-197z" />
    <glyph glyph-name="Ntilde" unicode="&#xd1;" horiz-adv-x="706" 
d="M521 859q0 -54 -24.5 -81.5t-70.5 -27.5q-21 0 -38.5 5.5t-32.5 12t-29 12t-29 5.5q-20 0 -26.5 -9.5t-6.5 -25.5h-59q0 57 23 83t67 26q21 0 36.5 -5.5t29 -12.5t28 -12.5t34.5 -5.5q23 0 31.5 9t8.5 27h58zM173 700l360 -530v530h98v-700h-98l-360 531v-531h-98v700h98
z" />
    <glyph glyph-name="Ograve" unicode="&#xd2;" horiz-adv-x="810" 
d="M393 895l121 -123l-41 -39l-150 91zM405 710q81 0 148 -26q67 -27 115 -74q49 -48 75.5 -114.5t26.5 -146t-27 -145.5q-26 -66 -75 -114q-48 -47 -115 -74q-67 -26 -148 -26t-148 26q-67 27 -115 74q-48 48 -75 114t-27 145.5t27 146t75 114.5q48 47 115 74q67 26 148 26
zM405 620q-59 0 -108 -19q-48 -20 -83 -55q-34 -35 -53 -85t-19 -111.5t19 -111t53 -84.5q35 -36 83 -55q49 -19 108 -19q60 0 108 19q49 19 83 55q34 35 53 84.5t19 111t-19 111.5t-53 85t-83 55q-48 19 -108 19z" />
    <glyph glyph-name="Oacute" unicode="&#xd3;" horiz-adv-x="810" 
d="M501 826l-150 -91l-41 39l121 123zM405 710q81 0 148 -26q67 -27 115 -74q49 -48 75.5 -114.5t26.5 -146t-27 -145.5q-26 -66 -75 -114q-48 -47 -115 -74q-67 -26 -148 -26t-148 26q-67 27 -115 74q-48 48 -75 114t-27 145.5t27 146t75 114.5q48 47 115 74q67 26 148 26z
M405 620q-59 0 -108 -19q-48 -20 -83 -55q-34 -35 -53 -85t-19 -111.5t19 -111t53 -84.5q35 -36 83 -55q49 -19 108 -19q60 0 108 19q49 19 83 55q34 35 53 84.5t19 111t-19 111.5t-53 85t-83 55q-48 19 -108 19z" />
    <glyph glyph-name="Ocircumflex" unicode="&#xd4;" horiz-adv-x="810" 
d="M455 869l101 -109l-27 -30l-123 70l-122 -70l-29 30l102 109h98zM405 710q81 0 148 -26q67 -27 115 -74q49 -48 75.5 -114.5t26.5 -146t-27 -145.5q-26 -66 -75 -114q-48 -47 -115 -74q-67 -26 -148 -26t-148 26q-67 27 -115 74q-48 48 -75 114t-27 145.5t27 146
t75 114.5q48 47 115 74q67 26 148 26zM405 620q-59 0 -108 -19q-48 -20 -83 -55q-34 -35 -53 -85t-19 -111.5t19 -111t53 -84.5q35 -36 83 -55q49 -19 108 -19q60 0 108 19q49 19 83 55q34 35 53 84.5t19 111t-19 111.5t-53 85t-83 55q-48 19 -108 19z" />
    <glyph glyph-name="Otilde" unicode="&#xd5;" horiz-adv-x="810" 
d="M563 859q0 -54 -24.5 -81.5t-70.5 -27.5q-21 0 -38.5 5.5t-32.5 12t-29 12t-29 5.5q-20 0 -26.5 -9.5t-6.5 -25.5h-59q0 57 23 83t67 26q21 0 36.5 -5.5t29 -12.5t28 -12.5t34.5 -5.5q23 0 31.5 9t8.5 27h58zM405 710q81 0 148 -26q67 -27 115 -74q49 -48 75.5 -114.5
t26.5 -146t-27 -145.5q-26 -66 -75 -114q-48 -47 -115 -74q-67 -26 -148 -26t-148 26q-67 27 -115 74q-48 48 -75 114t-27 145.5t27 146t75 114.5q48 47 115 74q67 26 148 26zM405 620q-59 0 -108 -19q-48 -20 -83 -55q-34 -35 -53 -85t-19 -111.5t19 -111t53 -84.5
q35 -36 83 -55q49 -19 108 -19q60 0 108 19q49 19 83 55q34 35 53 84.5t19 111t-19 111.5t-53 85t-83 55q-48 19 -108 19z" />
    <glyph glyph-name="Odieresis" unicode="&#xd6;" horiz-adv-x="811" 
d="M351 860v-100h-100v100h100zM561 860v-100h-100v100h100zM143 90q-49 48 -75.5 114t-26.5 146t26.5 146t75.5 114q48 47 115 74q67 26 148 26t148 -26q67 -27 115 -74q49 -48 75 -114q27 -66 27 -146t-27 -146q-26 -66 -75 -114q-48 -47 -115 -74q-67 -26 -148 -26
t-148 26q-67 27 -115 74zM215 154q34 -35 83 -55q48 -19 107.5 -19t108.5 19q48 20 83 55q34 35 53 85t19 111t-19 111t-53 85q-35 36 -83 55q-49 19 -108.5 19t-107.5 -19q-49 -20 -83 -55t-53 -85t-19 -111t19 -111t53 -85z" />
    <glyph glyph-name="Oslash" unicode="&#xd8;" horiz-adv-x="831" 
d="M416 710q69 0 127 -19t104 -54l76 76l57 -57l-75 -75q37 -46 56 -104q20 -58 20 -127q0 -80 -27 -146q-26 -66 -75 -114q-48 -47 -115 -74q-67 -26 -148 -26q-68 0 -126 19q-58 18 -104 53l-75 -75l-57 57l74 74q-37 46 -57 104q-20 59 -20 128q0 80 26.5 146t75.5 114
q48 47 115 74q67 26 148 26zM416 620q-59 0 -108 -19q-49 -20 -83 -55t-53 -85t-19 -111q0 -95 45 -162l382 382q-33 24 -74 37t-90 13zM253 129q67 -49 163 -49q59 0 108 19q48 20 83 55q34 35 53 85t19 111q0 94 -44 161z" />
    <glyph glyph-name="Ugrave" unicode="&#xd9;" horiz-adv-x="711" 
d="M303 892l121 -123l-41 -39l-150 91zM175 700v-385q0 -124 43 -180q42 -55 137 -55t138 55q42 56 42 180v0v385h100v-385q0 -165 -69 -245t-211 -80q-280 0 -280 325v385h100z" />
    <glyph glyph-name="Uacute" unicode="&#xda;" horiz-adv-x="711" 
d="M469 821l-150 -91l-41 39l121 123zM175 700v-385q0 -124 43 -180q42 -55 137 -55t138 55q42 56 42 180v0v385h100v-385q0 -165 -69 -245t-211 -80q-280 0 -280 325v385h100z" />
    <glyph glyph-name="Ucircumflex" unicode="&#xdb;" horiz-adv-x="711" 
d="M405 869l101 -109l-27 -30l-123 70l-122 -70l-29 30l102 109h98zM175 700v-385q0 -124 43 -180q42 -55 137 -55t138 55q42 56 42 180v0v385h100v-385q0 -165 -69 -245t-211 -80q-280 0 -280 325v385h100z" />
    <glyph glyph-name="Udieresis" unicode="&#xdc;" horiz-adv-x="711" 
d="M201 860h100v-100h-100v100zM411 860h100v-100h-100v100zM175 700v-385q0 -124 43 -180q42 -55 137 -55t138 55q42 56 42 180v0v385h100v-385q0 -165 -69 -245t-211 -80q-280 0 -280 325v385h100z" />
    <glyph glyph-name="Yacute" unicode="&#xdd;" horiz-adv-x="574" 
d="M413 821l-150 -91l-41 39l121 123zM118 700l169 -291l169 291h117l-236 -382v-318h-100v318l-236 382h117z" />
    <glyph glyph-name="Thorn" unicode="&#xde;" horiz-adv-x="554" 
d="M175 700v-128h109q53 0 95.5 -16t72.5 -44.5t46 -67t16 -83.5t-16 -84t-46 -68.5t-72.5 -46t-95.5 -16.5h-109v-146h-100v700h100zM175 236h93q35 0 62 10t45 26.5t27.5 39t9.5 48.5q0 51 -35 85q-38 37 -108 37h-94v-246z" />
    <glyph glyph-name="germandbls" unicode="&#xdf;" horiz-adv-x="602" 
d="M285 710q48 0 88 -14q35 -13 59 -36q23 -22 35 -51t12 -62q0 -41 -17.5 -67.5t-37 -44t-37 -34.5t-17.5 -40q0 -21 17 -39q13 -13 34.5 -27.5t49.5 -34.5q21 -15 44 -32.5t37 -40.5q15 -27 15 -60q0 -30 -12 -54.5t-34 -42.5t-51 -29q-31 -11 -67 -11q-46 0 -85 19
q-31 16 -57 43l58 62q47 -43 94 -43q46 0 59 38q4 10 4 20q0 17 -12 32q-16 21 -63 51q-43 26 -86 61t-43 88q0 23 8 41q7 15 21 31q11 12 25 23q15 12 26 24q14 14 21 29q9 18 9 40q0 38 -24 59q-24 20 -68 20q-37 0 -61 -16q-20 -14 -33 -39q-12 -24 -17 -51
q-5 -32 -5 -113v-409h-99v409q0 89 11 140q11 47 34 81q23 33 63 56.5t102 23.5z" />
    <glyph glyph-name="agrave" unicode="&#xe0;" horiz-adv-x="552" 
d="M369 605l-45 -34l-141 107l74 62zM78 448q48 32 100 47t103 15q93 0 147 -47q54 -48 54 -142v0v-321h-79l-15 60q-33 -35 -76 -53q-44 -19 -92 -19q-39 0 -71 11q-32 12 -55 32q-23 21 -36 50t-13 65q0 73 50.5 114.5t143.5 41.5h53v-81h-53h-2q-46 0 -71 -19t-25 -54
q0 -34 24 -54t64 -20q30 0 59 12q29 11 51 30t35.5 43.5t13.5 50.5v111q0 103 -113 103q-48 0 -87 -16q-38 -15 -66 -36z" />
    <glyph glyph-name="aacute" unicode="&#xe1;" horiz-adv-x="552" 
d="M297 740l74 -62l-141 -107l-45 34zM78 448q48 32 100 47t103 15q93 0 147 -47q54 -48 54 -142v0v-321h-79l-15 60q-33 -35 -76 -53q-44 -19 -92 -19q-39 0 -71 11q-32 12 -55 32q-23 21 -36 50t-13 65q0 73 50.5 114.5t143.5 41.5h53v-81h-53h-2q-46 0 -71 -19t-25 -54
q0 -34 24 -54t64 -20q30 0 59 12q29 11 51 30t35.5 43.5t13.5 50.5v111q0 103 -113 103q-48 0 -87 -16q-38 -15 -66 -36z" />
    <glyph glyph-name="acircumflex" unicode="&#xe2;" horiz-adv-x="552" 
d="M78 448q48 32 100 47t103 15q93 0 147 -47q54 -48 54 -142v0v-321h-79l-15 60q-33 -35 -76 -53q-44 -19 -92 -19q-39 0 -71 11q-32 12 -55 32q-23 21 -36 50t-13 65q0 73 50.5 114.5t143.5 41.5h53v-81h-53h-2q-46 0 -71 -19t-25 -54q0 -34 24 -54t64 -20q30 0 59 12
q29 11 51 30t35.5 43.5t13.5 50.5v111q0 103 -113 103q-48 0 -87 -16q-38 -15 -66 -36zM323 711l99 -111l-26 -29l-120 78l-121 -78l-25 29l98 111h95z" />
    <glyph glyph-name="atilde" unicode="&#xe3;" horiz-adv-x="552" 
d="M78 448q48 32 100 47t103 15q93 0 147 -47q54 -48 54 -142v0v-321h-79l-15 60q-33 -35 -76 -53q-44 -19 -92 -19q-39 0 -71 11q-32 12 -55 32q-23 21 -36 50t-13 65q0 73 50.5 114.5t143.5 41.5h53v-81h-53h-2q-46 0 -71 -19t-25 -54q0 -34 24 -54t64 -20q30 0 59 12
q29 11 51 30t35.5 43.5t13.5 50.5v111q0 103 -113 103q-48 0 -87 -16q-38 -15 -66 -36zM204 699q23 0 39 -6.5t30 -15t28 -15t33 -6.5q46 0 46 43h54q0 -54 -24.5 -81.5t-67.5 -27.5q-23 0 -40.5 6.5t-33 15t-29.5 15t-29 6.5q-20 0 -29.5 -11.5t-9.5 -31.5h-53q0 57 22 83
t64 26z" />
    <glyph glyph-name="adieresis" unicode="&#xe4;" horiz-adv-x="552" 
d="M135 700h94v-94h-94v94zM323 700h94v-94h-94v94zM78 448q48 32 100 47t103 15q93 0 147 -47q54 -48 54 -142v0v-321h-79l-15 60q-33 -35 -76 -53q-44 -19 -92 -19q-39 0 -71 11q-32 12 -55 32q-23 21 -36 50t-13 65q0 73 50.5 114.5t143.5 41.5h53v-81h-53h-2
q-46 0 -71 -19t-25 -54q0 -34 24 -54t64 -20q30 0 59 12q29 11 51 30t35.5 43.5t13.5 50.5v111q0 103 -113 103q-48 0 -87 -16q-38 -15 -66 -36z" />
    <glyph glyph-name="aring" unicode="&#xe5;" horiz-adv-x="552" 
d="M78 448q48 32 100 47t103 15q93 0 147 -47q54 -48 54 -142v0v-321h-79l-15 60q-33 -35 -76 -53q-44 -19 -92 -19q-39 0 -71 11q-32 12 -55 32q-23 21 -36 50t-13 65q0 73 50.5 114.5t143.5 41.5h53v-81h-53h-2q-46 0 -71 -19t-25 -54q0 -34 24 -54t64 -20q30 0 59 12
q29 11 51 30t35.5 43.5t13.5 50.5v111q0 103 -113 103q-48 0 -87 -16q-38 -15 -66 -36zM276 768q44 0 72 -28t28 -67v-2q-1 -41 -29 -69q-27 -27 -72 -27q-43 0 -71 27l-4 4q-24 27 -24 65q0 41 28 69t72 28zM276 721q-22 0 -34.5 -13t-12.5 -36t12.5 -36t34.5 -13
q23 0 35.5 13t12.5 36t-12.5 36t-35.5 13z" />
    <glyph glyph-name="ae" unicode="&#xe6;" horiz-adv-x="960" 
d="M77 448q48 32 96.5 47t99.5 15v0q64 0 112.5 -23t82.5 -73q39 51 93 73q55 23 111 23q55 0 99.5 -19.5t76.5 -54t49 -82.5q17 -47 17 -104v-36h-309v80h211q-10 59 -47 95t-97 36q-35 0 -64.5 -12.5t-51.5 -34.5q-21 -22 -34 -52t-14 -65v-13q1 -38 16 -69q14 -32 37 -55
q24 -22 55 -35t66 -13q52 0 85 17q33 16 63 53l61 -57q-37 -47 -85 -73q-47 -26 -118 -26q-75 0 -129 29q-54 28 -91 82q-34 -55 -94.5 -83t-146.5 -28q-39 0 -72 11.5t-57 32.5q-25 21 -39 50.5t-14 65.5t14 62q14 27 38 46q24 18 57 27t72 9h99l-1 -80h-98h-1
q-84 0 -84 -59q0 -37 28 -57t67 -20q56 0 91 17q36 16 57 43q21 26 29 59q8 32 8 64q0 68 -27.5 104t-69.5 48q-24 7 -51 7h-3q-29 0 -56 -6q-28 -7 -52 -18t-40 -25z" />
    <glyph glyph-name="ccedilla" unicode="&#xe7;" horiz-adv-x="531" 
d="M305 510q60 0 109 -20q50 -21 86 -58l-66 -66q-23 27 -56 43q-33 15 -73 15q-37 0 -68 -13t-53 -37q-23 -23 -36 -55q-12 -31 -12 -69q0 -37 13 -69q12 -32 34.5 -55t53.5 -36.5t68 -13.5q40 0 73 16q34 15 56 43l66 -66q-34 -35 -80 -56t-102 -23v-43q48 -5 68 -27.5
t20 -51.5q0 -21 -9 -37t-24.5 -26t-35.5 -15t-42 -5q-35 0 -59.5 10.5t-37.5 27.5l29 41q10 -11 25.5 -18.5t36.5 -7.5q19 0 31 8t12 24q0 15 -10 25t-42 10h-9v87h3q-52 5 -95 26q-43 22 -73 56q-31 34 -49 79q-17 45 -17 97q0 57 20 104q20 48 55 83q35 34 84 54
q48 19 106 19z" />
    <glyph glyph-name="egrave" unicode="&#xe8;" horiz-adv-x="584" 
d="M385 605l-45 -34l-141 107l74 62zM292 510q54 0 100.5 -19.5t80 -54t51.5 -82.5q19 -47 19 -104v-36h-313v80h215q-12 59 -52 95q-41 36 -101 36q-36 0 -64.5 -13t-48.5 -36q-21 -23 -32 -54t-11 -68q0 -39 13 -71q12 -33 35 -57q23 -23 54 -37q31 -13 68 -13
q31 0 55 8.5t41 19.5q18 11 29 23q12 12 18 19l70 -51q-25 -31 -50 -51t-51 -32t-54 -17q-29 -5 -62 -5q-56 0 -104 19.5t-83 54.5t-55 83t-20 105q0 56 19 103t52 82q34 34 80 54q46 19 101 19z" />
    <glyph glyph-name="eacute" unicode="&#xe9;" horiz-adv-x="584" 
d="M340 740l73 -62l-141 -107l-45 34zM292 510q54 0 100.5 -19.5t80 -54t51.5 -82.5q19 -47 19 -104v-36h-313v80h215q-12 59 -52 95q-41 36 -101 36q-36 0 -64.5 -13t-48.5 -36q-21 -23 -32 -54t-11 -68q0 -39 13 -71q12 -33 35 -57q23 -23 54 -37q31 -13 68 -13
q31 0 55 8.5t41 19.5q18 11 29 23q12 12 18 19l70 -51q-25 -31 -50 -51t-51 -32t-54 -17q-29 -5 -62 -5q-56 0 -104 19.5t-83 54.5t-55 83t-20 105q0 56 19 103t52 82q34 34 80 54q46 19 101 19z" />
    <glyph glyph-name="ecircumflex" unicode="&#xea;" horiz-adv-x="584" 
d="M292 510q54 0 100.5 -19.5t80 -54t51.5 -82.5q19 -47 19 -104v-36h-313v80h215q-12 59 -52 95q-41 36 -101 36q-36 0 -64.5 -13t-48.5 -36q-21 -23 -32 -54t-11 -68q0 -39 13 -71q12 -33 35 -57q23 -23 54 -37q31 -13 68 -13q31 0 55 8.5t41 19.5q18 11 29 23
q12 12 18 19l70 -51q-25 -31 -50 -51t-51 -32t-54 -17q-29 -5 -62 -5q-56 0 -104 19.5t-83 54.5t-55 83t-20 105q0 56 19 103t52 82q34 34 80 54q46 19 101 19zM339 711l99 -111l-26 -29l-120 78l-121 -78l-25 29l98 111h95z" />
    <glyph glyph-name="edieresis" unicode="&#xeb;" horiz-adv-x="584" 
d="M152 700h94v-94h-94v94zM340 700h94v-94h-94v94zM292 510q54 0 100.5 -19.5t80 -54t51.5 -82.5q19 -47 19 -104v-36h-313v80h215q-12 59 -52 95q-41 36 -101 36q-36 0 -64.5 -13t-48.5 -36q-21 -23 -32 -54t-11 -68q0 -39 13 -71q12 -33 35 -57q23 -23 54 -37
q31 -13 68 -13q31 0 55 8.5t41 19.5q18 11 29 23q12 12 18 19l70 -51q-25 -31 -50 -51t-51 -32t-54 -17q-29 -5 -62 -5q-56 0 -104 19.5t-83 54.5t-55 83t-20 105q0 56 19 103t52 82q34 34 80 54q46 19 101 19z" />
    <glyph glyph-name="igrave" unicode="&#xec;" horiz-adv-x="237" 
d="M212 605l-45 -34l-141 107l73 62zM166 500v-500h-94v500h94z" />
    <glyph glyph-name="iacute" unicode="&#xed;" horiz-adv-x="238" 
d="M139 740l73 -62l-141 -107l-45 34zM164 500v-500h-94v500h94z" />
    <glyph glyph-name="icircumflex" unicode="&#xee;" horiz-adv-x="224" 
d="M159 711l99 -111l-26 -29l-120 78l-121 -78l-25 29l98 111h95zM159 500v-500h-94v500h94z" />
    <glyph glyph-name="idieresis" unicode="&#xef;" horiz-adv-x="224" 
d="M80 700v-94h-89v94h89zM233 700v-94h-89v94h89zM159 500v-500h-94v500h94z" />
    <glyph glyph-name="eth" unicode="&#xf0;" horiz-adv-x="605" 
d="M214 798q46 -18 86 -41q54 -31 99 -73l111 35l25 -66l-85 -26q55 -65 86 -164q25 -81 28 -158q1 -11 1 -21q0 -78 -25 -138q-16 -37 -43 -69q-37 -46 -87 -67q-44 -19 -100 -20h-8q-58 0 -105 18q-46 19 -80 53t-54 78q-23 50 -23 109v2q0 61 22 113q18 44 51 77
q36 37 89 56q43 15 91 15h3q41 0 77 -11q35 -11 71 -42q-6 31 -32 74q-21 36 -43 61l-178 -52l-23 66l138 41q-51 46 -135 82zM303 424q-39 0 -72 -14q-30 -13 -52 -36q-23 -23 -34 -55q-12 -32 -12 -67q0 -38 12 -70q13 -31 36.5 -54.5t54.5 -37.5q33 -14 72 -14
q72 0 118 48q45 48 45 126q0 80 -47 127t-121 47z" />
    <glyph glyph-name="ntilde" unicode="&#xf1;" 
d="M144 500l15 -71q25 32 64 56.5t96 24.5q37 0 69 -13q33 -13 56 -39q24 -25 37 -63q14 -39 14 -89v-306h-94v306q0 118 -105 118h-17q-26 -2 -48 -15q-22 -12 -38 -29t-25 -37t-9 -37v-306h-94v500h79zM208 699q23 0 39 -6.5t30 -15t28 -15t33 -6.5q46 0 46 43h54
q0 -54 -24.5 -81.5t-67.5 -27.5q-23 0 -40.5 6.5t-33 15t-29.5 15t-29 6.5q-20 0 -29.5 -11.5t-9.5 -31.5h-53q0 57 22 83t64 26z" />
    <glyph glyph-name="ograve" unicode="&#xf2;" horiz-adv-x="611" 
d="M399 605l-45 -34l-141 107l73 62zM116 64q-35 34 -55 82t-20 104q0 57 20 104.5t55 82.5q35 34 83.5 53.5t106.5 19.5t106 -19q49 -20 84 -54q35 -35 55 -83q20 -47 20 -104q0 -56 -20 -104t-55 -82q-35 -35 -84 -54q-49 -20 -106.5 -20t-105.5 20q-49 19 -84 54z
M185 126q22 -23 53 -37q31 -13 68 -13t68 13.5t53.5 36.5t34.5 55q13 32 13 69q0 38 -12 69q-13 32 -36 55q-22 24 -53 37t-68 13t-68 -13t-54 -37q-22 -23 -34.5 -54.5t-12.5 -69.5q0 -37 12 -69q13 -32 36 -55z" />
    <glyph glyph-name="oacute" unicode="&#xf3;" horiz-adv-x="611" 
d="M353 740l74 -62l-141 -107l-45 34zM116 64q-35 34 -55 82t-20 104q0 57 20 104.5t55 82.5q35 34 83.5 53.5t106.5 19.5t106 -19q49 -20 84 -54q35 -35 55 -83q20 -47 20 -104q0 -56 -20 -104t-55 -82q-35 -35 -84 -54q-49 -20 -106.5 -20t-105.5 20q-49 19 -84 54z
M185 126q22 -23 53 -37q31 -13 68 -13t68 13.5t53.5 36.5t34.5 55q13 32 13 69q0 38 -12 69q-13 32 -36 55q-22 24 -53 37t-68 13t-68 -13t-54 -37q-22 -23 -34.5 -54.5t-12.5 -69.5q0 -37 12 -69q13 -32 36 -55z" />
    <glyph glyph-name="ocircumflex" unicode="&#xf4;" horiz-adv-x="610" 
d="M305 510q58 0 106 -19q49 -20 84 -54q36 -35 55 -83q20 -47 20 -104q0 -56 -20 -104t-55 -82q-35 -35 -84 -54q-48 -20 -106 -20q-57 0 -106 20q-49 19 -84 54q-35 34 -55 82t-20 104q0 57 20 104q20 48 55 83q35 34 84 54q48 19 106 19zM305 424q-37 0 -68 -13t-53 -37
q-23 -23 -36 -55q-12 -31 -12 -69q0 -37 13 -69q12 -32 34.5 -55t53.5 -36.5t68 -13.5t68 13.5t53.5 36.5t35.5 55q12 32 12 69q0 38 -12 69q-13 32 -36 55q-22 24 -53 37t-68 13zM352 711l99 -111l-26 -29l-120 78l-121 -78l-25 29l98 111h95z" />
    <glyph glyph-name="otilde" unicode="&#xf5;" horiz-adv-x="610" 
d="M305 510q58 0 106 -19q49 -20 84 -54q36 -35 55 -83q20 -47 20 -104q0 -56 -20 -104t-55 -82q-35 -35 -84 -54q-48 -20 -106 -20q-57 0 -106 20q-49 19 -84 54q-35 34 -55 82t-20 104q0 57 20 104q20 48 55 83q35 34 84 54q48 19 106 19zM305 424q-37 0 -68 -13t-53 -37
q-23 -23 -36 -55q-12 -31 -12 -69q0 -37 13 -69q12 -32 34.5 -55t53.5 -36.5t68 -13.5t68 13.5t53.5 36.5t35.5 55q12 32 12 69q0 38 -12 69q-13 32 -36 55q-22 24 -53 37t-68 13zM233 699q23 0 39 -6.5t30 -15t28 -15t33 -6.5q46 0 46 43h54q0 -54 -24.5 -81.5t-67.5 -27.5
q-23 0 -40.5 6.5t-33 15t-29.5 15t-29 6.5q-20 0 -29.5 -11.5t-9.5 -31.5h-53q0 57 22 83t64 26z" />
    <glyph glyph-name="odieresis" unicode="&#xf6;" horiz-adv-x="611" 
d="M165 700h94v-94h-94v94zM353 700h94v-94h-94v94zM306 510q57 0 106 -19q48 -20 84 -54q35 -35 55 -83q20 -47 20 -104q0 -56 -20 -104t-56 -82q-35 -35 -83 -54q-49 -20 -106.5 -20t-105.5 20q-49 19 -84 54q-36 34 -56 82q-19 48 -19 104q0 57 19.5 104.5t54.5 82.5
q36 34 84.5 53.5t106.5 19.5zM306 424q-37 0 -68 -13t-54 -37q-22 -23 -35 -54.5t-13 -69.5q0 -37 13 -69t35 -55q23 -23 54 -37q31 -13 67.5 -13t67.5 13.5t53.5 36.5t35.5 55t13 69q0 38 -13 69q-12 32 -35 55q-23 24 -54 37t-67 13z" />
    <glyph glyph-name="oslash" unicode="&#xf8;" horiz-adv-x="620" 
d="M310 510q47 0 88 -13t74 -37l54 54l48 -48l-53 -53q26 -33 40 -74t14 -89q0 -56 -20 -104t-55 -82q-35 -35 -84 -54q-48 -20 -106 -20q-47 0 -88 13t-74 37l-54 -54l-48 48l53 53q-26 33 -40 74t-14 89q0 57 20 104q20 48 55 83q35 34 84 54q48 19 106 19zM310 425
q-37 0 -68 -13q-32 -13 -54 -36q-23 -24 -36 -56t-13 -70q0 -54 26 -96l243 242q-43 29 -98 29zM212 104q43 -29 98 -29q37 0 68 13q32 13 54.5 36.5t35.5 55.5t13 70q0 54 -26 97z" />
    <glyph glyph-name="ugrave" unicode="&#xf9;" 
d="M373 605l-45 -34l-141 107l73 62zM159 500v-306q0 -118 105 -118h18q25 2 47 15q22 12 38 29t25 37t9 37v306h94v-500h-78l-16 71q-25 -32 -64 -56.5t-95 -24.5q-38 0 -70 13t-56 39q-23 25 -37 64q-13 38 -13 88v306h93z" />
    <glyph glyph-name="uacute" unicode="&#xfa;" 
d="M324 740l74 -62l-141 -107l-45 34zM159 500v-306q0 -118 105 -118h18q25 2 47 15q22 12 38 29t25 37t9 37v306h94v-500h-78l-16 71q-25 -32 -64 -56.5t-95 -24.5q-38 0 -70 13t-56 39q-23 25 -37 64q-13 38 -13 88v306h93z" />
    <glyph glyph-name="ucircumflex" unicode="&#xfb;" 
d="M159 500v-306q0 -118 105 -118h18q25 2 47 15q22 12 38 29t25 37t9 37v306h94v-500h-78l-16 71q-25 -32 -64 -56.5t-95 -24.5q-38 0 -70 13t-56 39q-23 25 -37 64q-13 38 -13 88v306h93zM327 711l99 -111l-26 -29l-120 78l-121 -78l-25 29l98 111h95z" />
    <glyph glyph-name="udieresis" unicode="&#xfc;" 
d="M139 700h94v-94h-94v94zM327 700h94v-94h-94v94zM159 500v-306q0 -118 105 -118h18q25 2 47 15q22 12 38 29t25 37t9 37v306h94v-500h-78l-16 71q-25 -32 -64 -56.5t-95 -24.5q-38 0 -70 13t-56 39q-23 25 -37 64q-13 38 -13 88v306h93z" />
    <glyph glyph-name="yacute" unicode="&#xfd;" horiz-adv-x="557" 
d="M321 740l74 -62l-141 -107l-45 34zM25 500h102l152 -359l151 359h102l-210 -500q-19 -45 -37 -82t-40 -63t-49 -41q-28 -14 -65 -14q-27 0 -54 10v85q9 -4 20.5 -6t20.5 -2q4 0 9 1q20 1 34 12q14 10 24 26q11 16 19 36q8 19 16 39l8 19z" />
    <glyph glyph-name="thorn" unicode="&#xfe;" horiz-adv-x="609" 
d="M158 740v-314q32 40 77 62t98 22q50 0 92.5 -19.5t73 -54t47.5 -82.5q18 -48 18 -104t-18 -104q-17 -48 -47.5 -82.5t-73 -54t-92.5 -19.5q-53 0 -98 22t-77 62v-274h-93v940h93zM159 250l-1 3v-6l1 3q0 -37 12 -69t32 -55q21 -23 49 -37q28 -13 61.5 -13t61.5 13
q29 14 49 37q21 23 32 55q12 32 12 69.5t-11.5 69t-32.5 54.5q-20 24 -49 37q-28 13 -61.5 13t-61.5 -13t-49 -37q-20 -23 -32 -54.5t-12 -69.5z" />
    <glyph glyph-name="ydieresis" unicode="&#xff;" horiz-adv-x="557" 
d="M138 700h94v-94h-94v94zM326 700h94v-94h-94v94zM25 500h102l152 -359l151 359h102l-210 -500q-19 -45 -37 -82t-40 -63t-49 -41q-28 -14 -65 -14q-27 0 -54 10v85q9 -4 20.5 -6t20.5 -2q4 0 9 1q20 1 34 12q14 10 24 26q11 16 19 36q8 19 16 39l8 19z" />
    <glyph glyph-name="Abreve" unicode="&#x102;" horiz-adv-x="690" 
d="M240 889q17 -24 40 -41t65.5 -17t65.5 17q24 17 40 41l52 -34q-26 -45 -67 -70t-91 -25q-49 0 -91 25q-41 25 -67 70zM388 700l282 -700h-106l-68 171h-302l-68 -171h-106l282 700h86zM231 261h229l-115 287z" />
    <glyph glyph-name="abreve" unicode="&#x103;" horiz-adv-x="552" 
d="M172 724q16 -25 39 -41q23 -17 66 -17t66 17q23 16 39 41l53 -34q-27 -45 -68 -70q-41 -26 -90 -26q-50 0 -91 26q-41 25 -68 70zM78 448q48 32 100 47t103 15q93 0 147 -47q54 -48 54 -142v0v-321h-79l-15 60q-33 -35 -76 -53q-44 -19 -92 -19q-39 0 -71 11
q-32 12 -55 32q-23 21 -36 50t-13 65q0 73 50.5 114.5t143.5 41.5h53v-81h-53h-2q-46 0 -71 -19t-25 -54q0 -34 24 -54t64 -20q30 0 59 12q29 11 51 30t35.5 43.5t13.5 50.5v111q0 103 -113 103q-48 0 -87 -16q-38 -15 -66 -36z" />
    <glyph glyph-name="Cacute" unicode="&#x106;" horiz-adv-x="696" 
d="M501 826l-150 -91l-41 39l121 123zM574 534q-36 41 -86 63q-49 23 -106 23q-52 0 -96 -20t-76 -55q-32 -36 -50 -86q-18 -49 -18 -109q0 -61 18 -110q19 -50 52 -86q33 -35 78 -55q46 -19 100 -19q70 0 121 30q51 31 82 79l73 -53q-47 -68 -115 -107q-69 -39 -161 -39
q-76 0 -140 27q-64 26 -110.5 74t-73.5 114q-26 66 -26 145t26 146q27 66 72 113q46 48 108 75q63 26 135 26q84 0 152 -33t110 -82z" />
    <glyph glyph-name="cacute" unicode="&#x107;" horiz-adv-x="531" 
d="M328 740l74 -62l-141 -107l-45 34zM305 510q60 0 109 -20q50 -21 86 -58l-66 -66q-23 27 -56 43q-33 15 -73 15q-37 0 -68 -13t-53 -37q-23 -23 -36 -55q-12 -31 -12 -69q0 -37 13 -69q12 -32 34.5 -55t53.5 -36.5t68 -13.5q40 0 73 16q34 15 56 43l66 -66
q-36 -37 -85.5 -58t-109.5 -21q-57 0 -106 20q-49 19 -84 54q-35 34 -55 82t-20 104q0 57 20 104q20 48 55 83q35 34 84 54q48 19 106 19z" />
    <glyph glyph-name="Ccaron" unicode="&#x10c;" horiz-adv-x="696" 
d="M324 761l-98 104l25 29l121 -71l120 71l26 -29l-99 -104h-95zM574 534q-36 41 -86 63q-49 23 -106 23q-52 0 -96 -20t-76 -55q-32 -36 -50 -86q-18 -49 -18 -109q0 -61 18 -110q19 -50 52 -86q33 -35 78 -55q46 -19 100 -19q70 0 121 30q51 31 82 79l73 -53
q-47 -68 -115 -107q-69 -39 -161 -39q-76 0 -140 27q-64 26 -110.5 74t-73.5 114q-26 66 -26 145t26 146q27 66 72 113q46 48 108 75q63 26 135 26q84 0 152 -33t110 -82z" />
    <glyph glyph-name="ccaron" unicode="&#x10d;" horiz-adv-x="531" 
d="M251 594l-98 104l25 29l121 -71l120 71l26 -29l-99 -104h-95zM305 510q60 0 109 -20q50 -21 86 -58l-66 -66q-23 27 -56 43q-33 15 -73 15q-37 0 -68 -13t-53 -37q-23 -23 -36 -55q-12 -31 -12 -69q0 -37 13 -69q12 -32 34.5 -55t53.5 -36.5t68 -13.5q40 0 73 16
q34 15 56 43l66 -66q-36 -37 -85.5 -58t-109.5 -21q-57 0 -106 20q-49 19 -84 54q-35 34 -55 82t-20 104q0 57 20 104q20 48 55 83q35 34 84 54q48 19 106 19z" />
    <glyph glyph-name="Dcaron" unicode="&#x10e;" horiz-adv-x="691" 
d="M304 761l-98 104l25 29l121 -71l120 71l26 -29l-99 -104h-95zM286 700q81 0 148 -26q67 -25 115 -72q48 -46 75 -110q27 -65 27 -142t-27 -142q-27 -64 -75 -110q-48 -47 -115 -72q-67 -26 -148 -26h-211v700h211zM175 90h111q59 0 108 19q48 18 82.5 52t53.5 82t19 107
t-19 107t-53.5 82t-82.5 52q-49 19 -108 19h-111v-520z" />
    <glyph glyph-name="dcaron" unicode="&#x10f;" horiz-adv-x="780" 
d="M604 740h91l-39 -197l-52 -1v198zM445 740h93v-740h-93v73q-32 -40 -76 -61q-45 -22 -98 -22q-50 0 -92 19.5t-73 54t-48 82.5q-18 48 -18 104t18 104q17 48 48 82.5t73 54t92 19.5q53 0 97 -21q45 -22 77 -62v313zM180 126q21 -23 49 -36q28 -14 61.5 -14t61.5 13.5
t49 36.5q20 23 32 55t12 69.5t-12 69t-32 55.5q-21 23 -49 36t-61.5 13t-61.5 -13t-49 -36q-21 -24 -32.5 -55.5t-11.5 -69t12 -69.5q11 -32 32 -55z" />
    <glyph glyph-name="Dcroat" unicode="&#x110;" horiz-adv-x="724" 
d="M319 700q81 0 149 -26q66 -25 114 -72q48 -46 75 -109q27 -66 27 -143t-27 -143q-27 -63 -75 -109q-48 -47 -114 -72q-68 -26 -149 -26h-211v327h-75v86h75v287h211zM208 413h204v-86h-204v-237h111q59 0 108 19q48 18 82.5 52t53.5 82t19 107t-19 107t-53.5 82t-82.5 52
q-49 19 -108 19h-111v-197z" />
    <glyph glyph-name="dcroat" unicode="&#x111;" horiz-adv-x="673" 
d="M445 650v90h93v-90h60v-80h-60v-570h-93v73q-32 -40 -77 -61q-44 -22 -97 -22q-50 0 -92 19.5t-73 54t-48 82.5q-18 48 -18 104t18 104q17 48 48 82.5t73 54t92 19.5q53 0 98 -21q44 -22 76 -62v143h-174v80h174zM180 126q21 -23 49 -36q28 -14 61.5 -14t61.5 13.5
t49 36.5q20 23 32 55t12 69.5t-12 69t-32 55.5q-21 23 -49 36t-61.5 13t-61.5 -13t-49 -36q-21 -24 -32.5 -55.5t-11.5 -69t12 -69.5q11 -32 32 -55z" />
    <glyph glyph-name="Gbreve" unicode="&#x11e;" horiz-adv-x="775" 
d="M276 889q16 -24 39 -41t66 -17t66 17t39 41l53 -34q-27 -45 -68 -70t-91 -25q-49 0 -90 25t-68 70zM379 710q78 0 147 -30q70 -31 117 -86l-69 -60q-37 41 -87 64q-49 22 -105 22q-53 0 -97 -20t-76 -56q-31 -36 -49 -85q-18 -50 -18 -109q0 -61 19 -110q18 -50 53 -86
q34 -35 82 -55q48 -19 106 -19q45 0 85 17t71 47q31 29 50 69t23 86h-254v90h358q0 -89 -24 -163q-24 -73 -68 -126q-45 -52 -108 -81q-64 -29 -143 -29q-78 0 -142.5 27t-110.5 75q-47 48 -73 114t-26 144t26 144q25 66 71 114q45 48 107 75t135 27z" />
    <glyph glyph-name="gbreve" unicode="&#x11f;" horiz-adv-x="603" 
d="M202 724q17 -25 40 -41q23 -17 66 -17t66 17q23 16 39 41l53 -34q-27 -45 -68 -70q-41 -26 -91 -26q-49 0 -90 26q-41 25 -68 70zM538 -63q0 -49 -19 -85t-52 -59.5t-79 -34.5q-46 -12 -101 -12q-33 0 -67 5t-78 17v89q5 -2 20 -7q15 -4 36 -8t46 -7t51 -3h1q28 0 54 4
q27 5 48 17t34 32q13 21 13 52v136q-32 -40 -77 -61q-44 -22 -97 -22q-50 0 -92 20q-43 19 -73.5 54t-47.5 82q-18 48 -18 104.5t18 103.5q17 48 48 82.5t74 54.5q43 19 94 19v0q52 0 96 -20t76 -59l14 69h78v-563zM180 126q20 -23 49 -36q28 -13 61.5 -13t61.5 13t49 36
q20 23 32 55q12 31 12 69t-12 69.5t-32 55.5q-21 23 -49 36t-61.5 13t-61.5 -13q-29 -13 -49 -36q-21 -24 -32.5 -55.5t-11.5 -69t12 -69.5q11 -32 32 -55z" />
    <glyph glyph-name="Idotaccent" unicode="&#x130;" horiz-adv-x="250" 
d="M75 900h100v-100h-100v100zM175 700v-700h-100v700h100z" />
    <glyph glyph-name="dotlessi" unicode="&#x131;" horiz-adv-x="224" 
d="M159 500v-500h-94v500h94z" />
    <glyph glyph-name="Lacute" unicode="&#x139;" horiz-adv-x="483" 
d="M275 821l-150 -91l-41 39l121 123zM175 700v-610h292v-90h-392v700h100z" />
    <glyph glyph-name="lacute" unicode="&#x13a;" horiz-adv-x="226" 
d="M216 861l-150 -91l-41 39l121 123zM160 740v-740h-94v740h94z" />
    <glyph glyph-name="Lcaron" unicode="&#x13d;" horiz-adv-x="483" 
d="M241 700h91l-39 -197l-52 -1v198zM75 700h100v-610h292v-90h-392v700z" />
    <glyph glyph-name="lcaron" unicode="&#x13e;" horiz-adv-x="402" 
d="M225 740h91l-39 -197l-52 -1v198zM65 740h94v-740h-94v740z" />
    <glyph glyph-name="Ncaron" unicode="&#x147;" horiz-adv-x="706" 
d="M315 761l-98 104l25 29l121 -71l120 71l26 -29l-99 -104h-95zM173 700l360 -530v530h98v-700h-98l-360 531v-531h-98v700h98z" />
    <glyph glyph-name="ncaron" unicode="&#x148;" 
d="M232 588l-98 104l25 29l121 -71l120 71l26 -29l-99 -104h-95zM144 500l15 -71q25 32 64 56.5t96 24.5q37 0 69 -13q33 -13 56 -39q24 -25 37 -63q14 -39 14 -89v-306h-94v306q0 118 -105 118h-17q-26 -2 -48 -15q-22 -12 -38 -29t-25 -37t-9 -37v-306h-94v500h79z" />
    <glyph glyph-name="Ohungarumlaut" unicode="&#x150;" horiz-adv-x="810" 
d="M410 866l-87 -114l-50 20l51 131zM595 840l-113 -88l-43 32l82 114zM405 710q81 0 148 -26q67 -27 115 -74q49 -48 75.5 -114.5t26.5 -146t-27 -145.5q-26 -66 -75 -114q-48 -47 -115 -74q-67 -26 -148 -26t-148 26q-67 27 -115 74q-48 48 -75 114t-27 145.5t27 146
t75 114.5q48 47 115 74q67 26 148 26zM405 620q-59 0 -108 -19q-48 -20 -83 -55q-34 -35 -53 -85t-19 -111.5t19 -111t53 -84.5q35 -36 83 -55q49 -19 108 -19q60 0 108 19q49 19 83 55q34 35 53 84.5t19 111t-19 111.5t-53 85t-83 55q-48 19 -108 19z" />
    <glyph glyph-name="ohungarumlaut" unicode="&#x151;" horiz-adv-x="610" 
d="M314 689l-97 -124l-47 26l63 144zM499 660l-124 -95l-41 35l97 124zM305 510q58 0 106 -19q49 -20 84 -54q36 -35 55 -83q20 -47 20 -104q0 -56 -20 -104t-55 -82q-35 -35 -84 -54q-48 -20 -106 -20q-57 0 -106 20q-49 19 -84 54q-35 34 -55 82t-20 104q0 57 20 104
q20 48 55 83q35 34 84 54q48 19 106 19zM305 424q-37 0 -68 -13t-53 -37q-23 -23 -36 -55q-12 -31 -12 -69q0 -37 12 -69q13 -32 35.5 -55t53.5 -36.5t68 -13.5t68 13.5t53.5 36.5t35.5 55q12 32 12 69q0 38 -12 69q-13 32 -35 55q-23 24 -54 37t-68 13z" />
    <glyph glyph-name="OE" unicode="&#x152;" horiz-adv-x="899" 
d="M406 0q-81 0 -148 26q-68 25 -116 71t-74.5 110.5t-26.5 142t26.5 142t74.5 110.5q48 47 115.5 72.5t148.5 25.5h434v-90h-307v-197h265v-90h-265v-233h320v-90h-447zM406 611q-60 0 -108 -19q-49 -18 -83 -52q-35 -34 -54 -83q-18 -48 -18 -107.5t18.5 -107.5t53.5 -82
q34 -34 83 -52q48 -18 108 -18h27v521h-27z" />
    <glyph glyph-name="oe" unicode="&#x153;" horiz-adv-x="1028" 
d="M310 510q70 0 125 -27q55 -28 91 -76q33 48 86 75.5t119 27.5q54 0 100.5 -19.5t80 -54t51.5 -82.5q19 -47 19 -104v-36h-313v80h215q-12 59 -52 95q-41 36 -101 36q-35 0 -63 -13q-29 -12 -49 -35q-21 -22 -32 -52t-12 -66v-9q0 -37 13 -69q12 -31 35 -55q23 -23 54 -36
q31 -14 68 -14q31 0 55 8.5t41 19.5q18 11 29 23q12 12 18 19l70 -51q-25 -31 -50 -51t-51 -32t-54 -17q-29 -5 -62 -5q-69 0 -124 28t-90 77q-35 -49 -91 -77t-126 -28q-57 0 -106 20q-48 19 -84 54q-35 34 -55 82t-20 104q0 57 20 104q20 48 55 83q35 34 84 54
q49 19 106 19zM310 424q-37 0 -68 -13t-53 -37q-23 -23 -35 -55q-13 -31 -13 -69q0 -37 13 -69q12 -32 34.5 -55t53.5 -36.5t68 -13.5q36 0 66.5 12.5t52.5 34.5t36 53q13 30 14 66v18q-2 36 -15 66t-35 51q-23 22 -53 35q-30 12 -66 12z" />
    <glyph glyph-name="Racute" unicode="&#x154;" horiz-adv-x="611" 
d="M397 821l-150 -91l-41 39l121 123zM291 700q65 0 111.5 -16t76.5 -43t44 -64q15 -36 15 -77q0 -65 -36.5 -117t-117.5 -72l207 -311h-117l-200 300h-100v-300h-99v700h216zM174 387h117q77 0 114 30q38 31 38 83t-38 81q-37 29 -114 29h-117v-223z" />
    <glyph glyph-name="racute" unicode="&#x155;" horiz-adv-x="434" 
d="M249 740l73 -62l-141 -107l-45 34zM159 500v-83q29 43 74 68t102 25q45 0 84 -16l-50 -93q-35 17 -68 17q-30 0 -56 -12q-26 -13 -45 -31q-19 -19 -30 -41q-10 -23 -10 -43l-1 -291h-94v500h94z" />
    <glyph glyph-name="Scedilla" unicode="&#x15e;" horiz-adv-x="583" 
d="M283 710q62 0 117 -21q56 -20 103 -60l-60 -74q-42 36 -83 52t-79 16v0q-52 0 -85 -25q-33 -26 -33 -67q0 -26 8 -46q7 -20 24.5 -37t46.5 -31.5t72 -29.5q112 -38 160 -86t48 -123q0 -38 -17 -72t-46 -59q-29 -26 -68.5 -41t-84.5 -16v-43q48 -5 68 -27.5t20 -51.5
q0 -21 -9 -37t-24.5 -26t-35.5 -15t-42 -5q-35 0 -59.5 10.5t-37.5 27.5l29 41q10 -11 25.5 -18.5t36.5 -7.5q19 0 31 8t12 25q0 14 -10 24t-42 10h-9v86q-66 4 -116 24q-50 19 -102 60l64 77q42 -37 88 -55q47 -18 95 -18q62 0 97 27t36 71v0q0 25 -8 43.5t-28 34.5
q-21 16 -57 31q-37 16 -94 35q-84 28 -126.5 78.5t-42.5 121.5q0 42 15 76.5t43 59.5t68 39q41 14 92 14z" />
    <glyph glyph-name="scedilla" unicode="&#x15f;" horiz-adv-x="453" 
d="M228 510q43 0 79 -12q36 -11 71 -36l-45 -72q-45 31 -102 35q-33 0 -52 -14t-19 -42v-1q0 -24 18 -42q19 -17 69 -37q77 -32 111 -67q34 -36 34 -83q0 -30 -12 -57q-12 -26 -33.5 -46t-50.5 -32t-62 -14v-43q48 -5 68 -27.5t20 -51.5q0 -21 -9 -37t-24.5 -26t-35.5 -15
t-42 -5q-35 0 -59.5 10.5t-37.5 27.5l29 41q10 -11 25.5 -18.5t36.5 -7.5q19 0 31 8t12 25q0 14 -10 24t-42 10h-9v86q-50 5 -88 18q-37 13 -64 31l41 76q34 -20 66 -30t75 -10q33 0 56 17t23 41q0 28 -27 45q-28 17 -66 34l-25 12q-60 28 -87 65q-27 36 -27 85q0 65 43 100
q44 35 120 35h1z" />
    <glyph glyph-name="Scaron" unicode="&#x160;" horiz-adv-x="583" 
d="M244 761l-98 104l25 29l121 -71l120 71l26 -29l-99 -104h-95zM283 710q62 0 117 -21q56 -20 103 -60l-60 -74q-42 36 -83 52t-79 16v0q-52 0 -85 -25q-33 -26 -33 -67q0 -26 8 -46q7 -20 24.5 -37t46.5 -31q29 -15 72 -30q112 -38 160 -86t48 -123q0 -39 -17 -73
q-18 -35 -48 -60q-31 -26 -72 -41q-40 -15 -87 -15q-40 0 -74 5q-35 5 -66 15q-30 10 -59 26q-29 17 -58 40l64 77q42 -37 88 -55q47 -18 95 -18q62 0 97 27t36 71v0q0 25 -8 43.5t-28 34.5q-21 16 -57 31q-37 16 -94 35q-84 28 -126.5 78.5t-42.5 121.5q0 42 15 76.5
t43 59.5t68 39q41 14 92 14z" />
    <glyph glyph-name="scaron" unicode="&#x161;" horiz-adv-x="453" 
d="M228 510q43 0 79 -12q36 -11 71 -36l-45 -72q-45 31 -102 35q-33 0 -52 -14t-19 -42v-1q0 -24 18 -42q19 -17 69 -37q77 -32 111 -67q34 -36 34 -83q0 -31 -13 -58q-13 -28 -36 -48q-22 -20 -52 -31q-31 -12 -65 -12v0q-66 0 -112.5 14.5t-78.5 35.5l41 76q34 -20 66 -30
t75 -10q33 0 56 17t23 41q0 28 -27 45q-28 17 -66 34l-25 12q-60 28 -87 65q-27 36 -27 85q0 65 43 100q44 35 120 35h1zM178 588l-98 104l25 29l121 -71l120 71l26 -29l-99 -104h-95z" />
    <glyph glyph-name="Tcaron" unicode="&#x164;" horiz-adv-x="606" 
d="M255 761l-98 104l25 29l121 -71l120 71l26 -29l-99 -104h-95zM581 700v-90h-228v-610h-100v610h-228v90h556z" />
    <glyph glyph-name="tcaron" unicode="&#x165;" horiz-adv-x="430" 
d="M266 740h89l-41 -169l-48 -1v170zM118 655h94v-155h104v-84h-104v-256q0 -27 5 -43t15 -25q10 -8 25 -10q15 -3 35 -3q16 0 24 1v-87q-3 -1 -12 -2q-8 -1 -23 -1q-34 0 -63 8q-30 9 -52.5 28.5t-35 51.5t-12.5 80v258h-78v84h78v155z" />
    <glyph glyph-name="Uhungarumlaut" unicode="&#x170;" horiz-adv-x="711" 
d="M352 866l-87 -114l-50 20l51 131zM537 840l-113 -88l-43 32l82 114zM75 700h100v-385q0 -124 43 -180q42 -55 137 -55t138 55q42 56 42 180v0v385h100v-385q0 -165 -69 -245t-211 -80q-280 0 -280 325v385z" />
    <glyph glyph-name="uhungarumlaut" unicode="&#x171;" 
d="M295 689l-97 -124l-47 26l63 144zM480 660l-124 -95l-41 35l97 124zM66 500h93v-306q0 -118 105 -118h18q25 2 47 15q22 12 38 29t25 37t9 37v306h94v-500h-78l-16 71q-25 -32 -64 -56.5t-95 -24.5q-38 0 -70 13t-56 39q-23 25 -37 64q-13 38 -13 88v306z" />
    <glyph glyph-name="Ydieresis" unicode="&#x178;" horiz-adv-x="574" 
d="M146 860h94v-94h-94v94zM334 860h94v-94h-94v94zM118 700l169 -291l169 291h117l-236 -382v-318h-100v318l-236 382h117z" />
    <glyph glyph-name="Zcaron" unicode="&#x17d;" horiz-adv-x="618" 
d="M268 761l-98 104l25 29l121 -71l120 71l26 -29l-99 -104h-95zM553 700v-50l-339 -560h364v-90h-503v50l339 560h-327v90h466z" />
    <glyph glyph-name="zcaron" unicode="&#x17e;" horiz-adv-x="512" 
d="M208 588l-98 104l25 29l121 -71l120 71l26 -29l-99 -104h-95zM453 500v-49l-264 -364h268v-87h-401v50l263 363h-246v87h380z" />
    <glyph glyph-name="uni0218" unicode="&#x218;" horiz-adv-x="583" 
d="M283 710q62 0 117 -21q56 -20 103 -60l-60 -74q-42 36 -83 52t-79 16v0q-52 0 -85 -25q-33 -26 -33 -67q0 -26 8 -46q7 -20 24.5 -37t46.5 -31q29 -15 72 -30q112 -38 160 -86t48 -123q0 -39 -17 -73q-18 -35 -48 -60q-31 -26 -72 -41q-40 -15 -87 -15q-40 0 -74 5
q-35 5 -66 15q-30 10 -59 26q-29 17 -58 40l64 77q42 -37 88 -55q47 -18 95 -18q62 0 97 27t36 71v0q0 25 -8 43.5t-28 34.5q-21 16 -57 31q-37 16 -94 35q-84 28 -126.5 78.5t-42.5 121.5q0 42 15 76.5t43 59.5t68 39q41 14 92 14zM345 -58v-100l-68 -120h-46l39 120h-25
v99z" />
    <glyph glyph-name="uni0219" unicode="&#x219;" horiz-adv-x="453" 
d="M228 510q43 0 79 -12q36 -11 71 -36l-45 -72q-45 31 -102 35q-33 0 -52 -14t-19 -42v-1q0 -24 18 -42q19 -17 69 -37q77 -32 111 -67q34 -36 34 -83q0 -31 -13 -58q-13 -28 -36 -48q-22 -20 -52 -31q-31 -12 -65 -12v0q-66 0 -112.5 14.5t-78.5 35.5l41 76q34 -20 66 -30
t75 -10q33 0 56 17t23 41q0 28 -27 45q-28 17 -66 34l-25 12q-60 28 -87 65q-27 36 -27 85q0 65 43 100q44 35 120 35h1zM272 -58v-100l-68 -120h-46l39 120h-25v100h100z" />
    <glyph glyph-name="uni021A" unicode="&#x21a;" horiz-adv-x="606" 
d="M581 700v-90h-228v-610h-100v610h-228v90h556zM353 -58v-100l-68 -120h-46l39 120h-25v100h100z" />
    <glyph glyph-name="uni021B" unicode="&#x21b;" horiz-adv-x="381" 
d="M212 655v-155h104v-84h-104v-256q0 -27 5 -43t15 -25q10 -8 25 -10q15 -3 35 -3q16 0 24 1v-87q-3 -1 -12 -2q-8 -1 -23 -1q-34 0 -63 8q-30 9 -52.5 28.5t-35 51.5t-12.5 80v258h-78v84h78v155h94zM230 -59v-100l-69 -120h-46l40 120h-25v100h100z" />
    <glyph glyph-name="uni0237" unicode="&#x237;" horiz-adv-x="225" 
d="M159 500v-500q0 -96 -45 -148t-122 -52q-12 0 -20 1t-11 2v83q9 -1 19 -1q28 0 45 9q16 9 25 25t12 37t3 44v500h94z" />
    <glyph glyph-name="uni02BC" unicode="&#x2bc;" horiz-adv-x="245" 
d="M180 700v-100l-69 -120h-46l40 120h-25v100h100z" />
    <glyph glyph-name="gravecomb" unicode="&#x300;" horiz-adv-x="267" 
d="M227 605l-45 -34l-141 107l73 62z" />
    <glyph glyph-name="uni0302" unicode="&#x302;" horiz-adv-x="343" 
d="M218 711l99 -111l-26 -29l-120 78l-121 -78l-25 29l98 111h95z" />
    <glyph glyph-name="tildecomb" unicode="&#x303;" horiz-adv-x="366" 
d="M111 699q23 0 39 -6.5t30 -15t28 -15t33 -6.5q46 0 46 43h54q0 -54 -24.5 -81.5t-67.5 -27.5q-23 0 -40.5 6.5t-33 15t-29.5 15t-29 6.5q-20 0 -29.5 -11.5t-9.5 -31.5h-53q0 57 22 83t64 26z" />
    <glyph glyph-name="uni0307" unicode="&#x307;" horiz-adv-x="174" 
d="M40 688h94v-94h-94v94z" />
    <glyph glyph-name="uni0308" unicode="&#x308;" horiz-adv-x="363" 
d="M40 700h94v-94h-94v94zM228 700h94v-94h-94v94z" />
    <glyph glyph-name="uni030A" unicode="&#x30a;" horiz-adv-x="281" 
d="M141 768q44 0 72 -28t28 -67v-2q-1 -41 -29 -69q-27 -27 -72 -27q-43 0 -71 27l-4 4q-24 27 -24 65q0 41 28 69t72 28zM141 721q-22 0 -34.5 -13t-12.5 -36t12.5 -36t34.5 -13q23 0 35.5 13t12.5 36t-12.5 36t-35.5 13z" />
    <glyph glyph-name="uni030C" unicode="&#x30c;" horiz-adv-x="343" 
d="M123 588l-98 104l25 29l121 -71l120 71l26 -29l-99 -104h-95z" />
    <glyph glyph-name="uni0400" unicode="&#x400;" horiz-adv-x="541" 
d="M364 766l-46 -34l-140 107l73 62zM482 700v-90h-307v-197h265v-90h-265v-233h320v-90h-420v700h407z" />
    <glyph glyph-name="uni0401" unicode="&#x401;" horiz-adv-x="541" 
d="M482 700v-90h-307v-197h265v-90h-265v-233h320v-90h-420v700h407zM236 879v-100h-100v100h100zM436 879v-100h-100v100h100z" />
    <glyph glyph-name="uni0402" unicode="&#x402;" horiz-adv-x="747" 
d="M550 700v-90h-250v-209q30 11 65 18t77 7q58 0 104 -13.5t81 -43t52.5 -77t17.5 -116.5v-9q0 -125 -65 -193q-61 -63 -162 -64h-2q-31 0 -61 6q-27 5 -42 12l27 86q18 -8 36.5 -11t35.5 -3q69 0 100 42.5t31 122.5v5q0 48 -11.5 79t-33 50.5t-52.5 28t-70 8.5
q-29 0 -59.5 -5t-68.5 -22v-309h-100v610h-175v90h525z" />
    <glyph glyph-name="uni0403" unicode="&#x403;" horiz-adv-x="508" 
d="M387 832l-150 -91l-41 39l121 123zM467 700v-90h-292v-610h-100v700h392z" />
    <glyph glyph-name="uni0404" unicode="&#x404;" horiz-adv-x="664" 
d="M559 529q-35 43 -83 67q-49 24 -105 24q-43 0 -81 -15q-38 -16 -67 -44t-49 -67.5t-27 -87.5h288v-90h-291q5 -54 24 -97q20 -44 52 -74q31 -31 74 -48t94 -17q58 0 100 23q42 24 77 76l69 -60q-48 -67 -108 -98t-139 -31q-77 0 -140 27q-64 26 -109 74q-46 48 -71.5 114
t-25.5 145t25 146q25 66 70 113q44 48 104.5 74.5t129.5 26.5q85 0 152 -35t108 -87z" />
    <glyph glyph-name="uni0405" unicode="&#x405;" horiz-adv-x="583" 
d="M283 710q62 0 117 -21q56 -20 103 -60l-60 -74q-42 36 -83 52t-79 16v0q-52 0 -85 -25q-33 -26 -33 -67q0 -26 8 -46q7 -20 24.5 -37t46.5 -31q29 -15 72 -30q112 -38 160 -86t48 -123q0 -39 -17 -73q-18 -35 -48 -60q-31 -26 -72 -41q-40 -15 -87 -15q-40 0 -74 5
q-35 5 -66 15q-30 10 -59 26q-29 17 -58 40l64 77q42 -37 88 -55q47 -18 95 -18q62 0 97 27t36 71v0q0 25 -8 43.5t-28 34.5q-21 16 -57 31q-37 16 -94 35q-84 28 -126.5 78.5t-42.5 121.5q0 42 15 76.5t43 59.5t68 39q41 14 92 14z" />
    <glyph glyph-name="uni0406" unicode="&#x406;" horiz-adv-x="250" 
d="M175 700v-700h-100v700h100z" />
    <glyph glyph-name="uni0407" unicode="&#x407;" horiz-adv-x="242" 
d="M71 879v-100h-100v100h100zM271 879v-100h-100v100h100zM171 700v-700h-100v700h100z" />
    <glyph glyph-name="uni0408" unicode="&#x408;" horiz-adv-x="440" 
d="M365 700v-500q0 -101 -49 -155q-49 -55 -135 -55q-48 0 -86 16q-37 16 -60 45l66 68q28 -39 77 -39q43 0 65 30q22 29 22 86v504h100z" />
    <glyph glyph-name="uni0409" unicode="&#x409;" horiz-adv-x="1022" 
d="M621 700v-281h124q64 0 111 -16.5t77 -45.5t44 -67t14 -80.5t-14 -80.5t-44 -67t-77 -45.5t-111 -16.5h-224v610h-255v-299q0 -54 -5 -111q-6 -56 -26 -103t-59 -77t-107 -30v0q-13 0 -27 3q-13 3 -22 7v85q7 -4 20 -6q12 -1 21 -1q39 0 61 22q21 23 31 55q10 33 12 69
q1 36 1 63v413h455zM621 90h124q77 0 111 31q35 32 35 88.5t-35 88.5q-34 31 -111 31h-124v-239z" />
    <glyph glyph-name="uni040A" unicode="&#x40a;" horiz-adv-x="1001" 
d="M175 700v-277h326v277h100v-281h123q64 0 111 -16.5t77 -45.5t44 -67t14 -80.5t-14 -80.5t-44 -67t-77 -45.5t-111 -16.5h-223v333h-326v-333h-100v700h100zM724 90q77 0 111 31q35 32 35 88.5t-35 88.5q-34 31 -111 31h-123v-239h123z" />
    <glyph glyph-name="uni040B" unicode="&#x40b;" horiz-adv-x="757" 
d="M550 700v-82h-247v-213q6 4 20 11.5t36 15.5t53 14t71 6q43 0 78.5 -13t61.5 -37q25 -23 39 -56q14 -32 14 -72v-274h-100v273q0 48 -26 68t-87 20q-35 0 -80 -12q-46 -11 -80 -34v-315h-100v618h-178v82h525z" />
    <glyph glyph-name="uni040C" unicode="&#x40c;" horiz-adv-x="649" 
d="M373 901l70 -71l-150 -91l-41 39zM173 700v-350l308 350h114l-261 -296l315 -405h-125l-256 330l-95 -108v-221h-98v700h98z" />
    <glyph glyph-name="uni040E" unicode="&#x40e;" horiz-adv-x="626" 
d="M207 868q12 -14 22 -24q10 -11 22 -19q12 -7 27.5 -11t37.5 -4t37 4t27 11q12 8 22 19q10 10 22 24l68 -50q-28 -44 -74 -63q-45 -19 -102.5 -19t-102.5 19q-46 19 -74 63zM21 700h109l196 -399l179 399h105l-243 -543q-21 -47 -44 -82q-23 -36 -55 -57q-31 -21 -74 -27
q-12 -1 -25 -1q-34 0 -77 10v90q13 -5 31 -8q18 -2 33 -2q41 0 64 18q24 18 43 62l11 24z" />
    <glyph glyph-name="uni040F" unicode="&#x40f;" horiz-adv-x="694" 
d="M175 700v-610h344v610h100v-700h-221v-153h-100v153h-223v700h100z" />
    <glyph glyph-name="uni0410" unicode="&#x410;" horiz-adv-x="690" 
d="M388 700l282 -700h-106l-68 171h-302l-68 -171h-106l282 700h86zM230 261h230l-115 287z" />
    <glyph glyph-name="uni0411" unicode="&#x411;" horiz-adv-x="606" 
d="M504 700v-90h-329v-212h146q70 0 117 -16t75.5 -43t40.5 -63t12 -77t-12 -77t-40.5 -63t-75.5 -43t-117 -16h-246v700h429zM324 90q42 0 69 7q27 8 43 22t22 34t6 46t-6 46t-22 34t-43 22q-27 7 -69 7h-149v-218h149z" />
    <glyph glyph-name="uni0412" unicode="&#x412;" horiz-adv-x="612" 
d="M307 700q64 0 107 -15t69 -41t37.5 -59.5t11.5 -70.5q0 -97 -74 -144q56 -26 82.5 -71.5t26.5 -102.5q0 -39 -13 -75q-14 -35 -43 -62q-30 -27 -78 -43t-118 -16h-240v700h232zM174 401h135q67 0 97 27t30 81q0 23 -6 42t-20 33q-15 13 -39.5 20.5t-62.5 7.5h-134v-211z
M174 88h146q42 0 70 8q29 8 46 23t24 36t7 47t-7 47t-24 36q-17 16 -46 24q-28 8 -70 8h-146v-229z" />
    <glyph glyph-name="uni0413" unicode="&#x413;" horiz-adv-x="508" 
d="M467 700v-90h-292v-610h-100v700h392z" />
    <glyph glyph-name="uni0414" unicode="&#x414;" horiz-adv-x="742" 
d="M617 700v-610h100v-220h-100v130h-491v-130h-100v220h78q29 44 45 90q15 46 23 92.5t9.5 91.5t1.5 87v249h434zM518 90v520h-235v-158q0 -39 -3 -90t-12 -102t-25 -96q-16 -46 -42 -74h317z" />
    <glyph glyph-name="uni0415" unicode="&#x415;" horiz-adv-x="541" 
d="M482 700v-90h-307v-197h265v-90h-265v-233h320v-90h-420v700h407z" />
    <glyph glyph-name="uni0416" unicode="&#x416;" horiz-adv-x="956" 
d="M50 700h111l268 -332v332h98v-332l268 332h112l-230 -284l279 -416h-114l-227 341l-88 -97v-244h-98v244l-88 97l-226 -342h-114l278 417z" />
    <glyph glyph-name="uni0417" unicode="&#x417;" horiz-adv-x="616" 
d="M72 617q18 20 43.5 37.5t55.5 29.5t62 19q33 7 64 7q61 0 104 -14q43 -15 71 -39q27 -24 40 -55q12 -32 12 -66v0q0 -57 -32 -102t-90 -67q72 -16 113 -62q40 -46 40 -113q0 -37 -14 -74q-14 -36 -45 -64q-31 -29 -78 -46q-48 -18 -115 -18q-89 0 -152 30t-116 73l69 76
q39 -34 89 -62q51 -27 119 -27q39 0 66 10t44 26q16 16 24 37t8 43q0 54 -38 90q-38 35 -109 35h-114v89h101q57 0 94 30q36 31 36 79q0 55 -29 79t-97 24q-46 0 -91 -23.5t-77 -57.5z" />
    <glyph glyph-name="uni0418" unicode="&#x418;" horiz-adv-x="706" 
d="M631 700v-700h-98v531l-360 -531h-98v700h98v-530l360 530h98z" />
    <glyph glyph-name="uni0419" unicode="&#x419;" horiz-adv-x="706" 
d="M631 700v-700h-98v531l-360 -531h-98v700h98v-530l360 530h98zM244 868q12 -14 22 -24q10 -11 22 -19q12 -7 27.5 -11t37.5 -4t37 4t27 11q12 8 22 19q10 10 22 24l68 -50q-28 -44 -73 -63q-46 -19 -103.5 -19t-102.5 19q-46 19 -74 63z" />
    <glyph glyph-name="uni041A" unicode="&#x41a;" horiz-adv-x="650" 
d="M173 700v-350l308 350h114l-261 -296l315 -405h-124l-257 330l-95 -108v-221h-98v700h98z" />
    <glyph glyph-name="uni041B" unicode="&#x41b;" horiz-adv-x="709" 
d="M634 700v-700h-100v610h-268v-299q0 -54 -5 -111q-6 -56 -26 -103t-59 -77t-107 -30v0q-13 0 -27 3q-13 3 -22 7v85q7 -4 20 -6q12 -1 21 -1q39 0 61 22q21 23 31 55q10 33 12 69q1 36 1 63v413h468z" />
    <glyph glyph-name="uni041C" unicode="&#x41c;" horiz-adv-x="823" 
d="M172 700l240 -501l240 501h96v-700h-98v493l-192 -403h-92l-192 403v-493h-98v700h96z" />
    <glyph glyph-name="uni041D" unicode="&#x41d;" horiz-adv-x="710" 
d="M175 700v-277h360v277h100v-700h-100v333h-360v-333h-100v700h100z" />
    <glyph glyph-name="uni041E" unicode="&#x41e;" horiz-adv-x="810" 
d="M405 710q81 0 148 -26q67 -27 115 -74q49 -48 75.5 -114.5t26.5 -146t-27 -145.5q-26 -66 -75 -114q-48 -47 -115 -74q-67 -26 -148 -26t-148 26q-67 27 -115 74q-48 48 -75 114t-27 145.5t27 146t75 114.5q48 47 115 74q67 26 148 26zM405 620q-59 0 -108 -19
q-48 -20 -83 -55q-34 -35 -53 -85t-19 -111.5t19 -111t53 -84.5q35 -36 83 -55q49 -19 108 -19q60 0 108 19q49 19 83 55q34 35 53 84.5t19 111t-19 111.5t-53 85t-83 55q-48 19 -108 19z" />
    <glyph glyph-name="uni041F" unicode="&#x41f;" horiz-adv-x="720" 
d="M645 700v-700h-100v610h-370v-610h-100v700h570z" />
    <glyph glyph-name="uni0420" unicode="&#x420;" horiz-adv-x="584" 
d="M298 700q64 0 111 -16.5t77 -45.5t44 -67t14 -80.5t-14 -80.5t-44 -67t-77 -45.5t-111 -16.5h-124v-281h-99v700h223zM174 371h124q77 0 111 31q35 32 35 88.5t-35 88.5q-34 31 -111 31h-124v-239z" />
    <glyph glyph-name="uni0421" unicode="&#x421;" horiz-adv-x="696" 
d="M574 534q-36 41 -86 63q-49 23 -106 23q-52 0 -96 -20t-76 -55q-32 -36 -50 -86q-18 -49 -18 -109q0 -61 18 -110q19 -50 52 -86q33 -35 78 -55q46 -19 100 -19q70 0 121 30q51 31 82 79l73 -53q-47 -68 -115 -107q-69 -39 -161 -39q-76 0 -140 27q-64 26 -110.5 74
t-73.5 114q-26 66 -26 145t26 146q27 66 72 113q46 48 108 75q63 26 135 26q84 0 152 -33t110 -82z" />
    <glyph glyph-name="uni0422" unicode="&#x422;" horiz-adv-x="606" 
d="M581 700v-90h-228v-610h-100v610h-228v90h556z" />
    <glyph glyph-name="uni0423" unicode="&#x423;" horiz-adv-x="616" 
d="M16 700h109l196 -399l179 399h105l-243 -543q-21 -47 -44 -82q-23 -36 -55 -57q-31 -21 -74 -27q-12 -1 -25 -1q-34 0 -77 10v90q13 -5 31 -8q18 -2 33 -2q41 0 64 18q24 18 43 62l11 24z" />
    <glyph glyph-name="uni0424" unicode="&#x424;" horiz-adv-x="925" 
d="M513 740v-87h42q73 0 133 -21q60 -22 103 -60q42 -38 65.5 -91t23.5 -116.5t-23.5 -116.5t-65.5 -91q-43 -38 -103 -59t-133 -21h-42v-77h-100v77h-42q-74 0 -134 21t-102 59q-43 38 -66 91t-23 116.5t23 116.5t66 91q42 38 102 60q60 21 134 21h42v87h100zM555 166
q106 0 164.5 53.5t58.5 145t-58.5 145.5t-164.5 54v0h-42v-398h42zM413 564h-42q-107 0 -165 -54t-58 -145.5t58 -145t165 -53.5h42v398z" />
    <glyph glyph-name="uni0425" unicode="&#x425;" horiz-adv-x="644" 
d="M146 700l176 -249l177 249h116l-233 -329l262 -371h-119l-203 287l-202 -287h-119l262 371l-233 329h116z" />
    <glyph glyph-name="uni0426" unicode="&#x426;" horiz-adv-x="755" 
d="M75 700h100v-610h370v610h100v-610h100v-232h-100v142h-570v700z" />
    <glyph glyph-name="uni0427" unicode="&#x427;" horiz-adv-x="649" 
d="M159 700v-274q0 -48 26 -68t87 -20q102 0 202 53v309h100v-700h-100v297q-30 -13 -57 -23q-27 -9 -53 -14.5t-53 -8.5q-28 -2 -59 -2q-43 0 -78.5 12.5t-61.5 36.5q-25 23 -39 56q-14 32 -14 72v274h100z" />
    <glyph glyph-name="uni0428" unicode="&#x428;" horiz-adv-x="1022" 
d="M175 700v-610h294v610h100v-610h278v610h99v-700h-871v700h100z" />
    <glyph glyph-name="uni0429" unicode="&#x429;" horiz-adv-x="1057" 
d="M175 700v-610h294v610h100v-610h278v610h99v-610h100v-232h-100v142h-871v700h100z" />
    <glyph glyph-name="uni042A" unicode="&#x42a;" horiz-adv-x="729" 
d="M319 700v-281h124q64 0 111 -16.5t77 -45.5t44 -67t14 -80.5t-14 -80.5t-44 -67t-77 -45.5t-111 -16.5h-223v610h-185v90h284zM319 90h124q77 0 111 31q35 32 35 88.5t-35 88.5q-34 31 -111 31h-124v-239z" />
    <glyph glyph-name="uni042B" unicode="&#x42b;" horiz-adv-x="797" 
d="M174 700v-281h124q64 0 111 -16.5t77 -45.5t44 -67t14 -80.5t-14 -80.5t-44 -67t-77 -45.5t-111 -16.5h-223v700h99zM722 700v-700h-100v700h100zM174 90h124q77 0 111 31q35 32 35 88.5t-35 88.5q-34 31 -111 31h-124v-239z" />
    <glyph glyph-name="uni042C" unicode="&#x42c;" horiz-adv-x="574" 
d="M174 700v-281h124q64 0 111 -16.5t77 -45.5t44 -67t14 -80.5t-14 -80.5t-44 -67t-77 -45.5t-111 -16.5h-223v700h99zM174 90h124q77 0 111 31q35 32 35 88.5t-35 88.5q-34 31 -111 31h-124v-239z" />
    <glyph glyph-name="uni042D" unicode="&#x42d;" horiz-adv-x="664" 
d="M34 589q42 51 109 86t151 35q70 0 130 -26.5t105 -74.5q44 -47 70 -113q25 -67 25 -146t-25.5 -145t-71.5 -114t-109 -74q-64 -27 -140 -27q-79 0 -139 31t-108 98l68 60q35 -52 77 -76q42 -23 101 -23q51 0 94 17q42 17 74 47q32 31 51 75q20 43 25 97h-291v90h288
q-8 48 -27 88q-20 39 -49 67q-30 28 -67 44q-38 15 -82 15q-55 0 -104 -24q-48 -24 -84 -67z" />
    <glyph glyph-name="uni042E" unicode="&#x42e;" horiz-adv-x="1021" 
d="M175 700v-286h102q10 66 39.5 120.5t75.5 93.5q45 39 105 60.5t130 21.5q78 0 143.5 -26.5t111.5 -73.5q47 -48 73 -114t26 -146t-26 -146t-73 -114q-46 -47 -111.5 -73.5t-143.5 -26.5q-75 0 -138 24.5t-110 68.5q-46 43 -73.5 104.5t-32.5 136.5h-98v-324h-100v700h100
zM627 620q-57 0 -104 -19q-46 -20 -79 -55t-51 -85t-18 -111t18 -111t51 -85t79 -55q47 -19 104 -19t103 19q47 20 80 55t51 85t18 111t-18 111t-51 85q-33 36 -80 55q-46 19 -103 19z" />
    <glyph glyph-name="uni042F" unicode="&#x42f;" horiz-adv-x="582" 
d="M507 700v-700h-99v293h-80l-191 -293h-111l195 300q-45 9 -77 29q-33 19 -54 46q-21 26 -31 58.5t-10 66.5q0 41 14 77q15 37 45 64t76.5 43t111.5 16h211zM293 610q-75 0 -112 -29t-37 -81t37 -86t112 -34h115v230h-115z" />
    <glyph glyph-name="uni0430" unicode="&#x430;" horiz-adv-x="552" 
d="M78 448q48 32 100 47t103 15q93 0 147 -47q54 -48 54 -142v0v-321h-79l-15 60q-33 -35 -76 -53q-44 -19 -92 -19q-39 0 -71 11q-32 12 -55 32q-23 21 -36 50t-13 65q0 73 50.5 114.5t143.5 41.5h53v-81h-53h-2q-46 0 -71 -19t-25 -54q0 -34 24 -54t64 -20q30 0 59 12
q29 11 51 30t35.5 43.5t13.5 50.5v111q0 103 -113 103q-48 0 -87 -16q-38 -15 -66 -36z" />
    <glyph glyph-name="uni0431" unicode="&#x431;" horiz-adv-x="612" 
d="M542 744q0 -70 -40 -103q-41 -33 -129 -45q-93 -13 -151 -62q-58 -50 -76 -130q32 40 78.5 62t101.5 22q50 0 92 -18q43 -18 73 -50q31 -33 48 -78q18 -45 18 -100q0 -54 -18 -100q-17 -46 -49 -80t-77 -53q-46 -19 -102 -19q-59 0 -105 21q-47 21 -79 61q-33 40 -50 97
t-17 129q0 168 73 259t230 125q46 9 65 22q18 12 26 40h88zM314 402q-34 0 -63 -13q-28 -13 -48 -35q-21 -21 -32 -51q-11 -29 -11 -63l-1 1q1 -34 13.5 -64t33.5 -53q20 -22 48 -35q27 -13 58 -13q32 0 59 14q27 13 47 36t32 53q11 31 11 67q0 35 -11 64q-11 28 -31 49
q-20 20 -47 32q-27 11 -58 11z" />
    <glyph glyph-name="uni0432" unicode="&#x432;" horiz-adv-x="544" 
d="M296 500q73 0 116 -38q42 -39 42 -99q0 -33 -13 -55t-34 -36q48 -14 70 -47q22 -32 22 -80q0 -70 -43 -108q-43 -37 -117 -37h-273v500h230zM158 291h117q46 0 66.5 20.5t20.5 47.5t-19 42q-18 15 -55 15h-130v-125zM158 85h175q29 0 51 18t22 49q0 28 -20 48
q-20 19 -53 19h-175v-134z" />
    <glyph glyph-name="uni0433" unicode="&#x433;" horiz-adv-x="453" 
d="M403 500v-87h-244v-413h-94v500h338z" />
    <glyph glyph-name="uni0434" unicode="&#x434;" horiz-adv-x="656" 
d="M527 500v-414h93v-231h-94v145h-407v-145h-94v231h78q18 11 30 31.5t18 44.5t8.5 48t2.5 41v249h365zM256 265q0 -60 -11 -106q-11 -47 -33 -70l-3 -3h224v328h-177v-149z" />
    <glyph glyph-name="uni0435" unicode="&#x435;" horiz-adv-x="584" 
d="M292 510q54 0 100.5 -19.5t80 -54t51.5 -82.5q19 -47 19 -104v-36h-313v80h215q-12 59 -52 95q-41 36 -101 36q-36 0 -64.5 -13t-48.5 -36q-21 -23 -32 -54t-11 -68q0 -39 13 -71q12 -33 35 -57q23 -23 54 -37q31 -13 68 -13q31 0 55 8.5t41 19.5q18 11 29 23
q12 12 18 19l70 -51q-25 -31 -50 -51t-51 -32t-54 -17q-29 -5 -62 -5q-56 0 -104 19.5t-83 54.5t-55 83t-20 105q0 56 19 103t52 82q34 34 80 54q46 19 101 19z" />
    <glyph glyph-name="uni0436" unicode="&#x436;" horiz-adv-x="825" 
d="M165 500l201 -219v219h92v-219l201 219h116l-190 -207l214 -293h-116l-169 231l-56 -58v-173h-92v173l-55 58l-169 -231h-117l215 293l-190 207h115z" />
    <glyph glyph-name="uni0437" unicode="&#x437;" horiz-adv-x="504" 
d="M60 440q15 12 32 25q18 12 40 22t50 16t63 7h2q39 0 73 -8q34 -9 59 -26q24 -16 38 -41t14 -57q0 -74 -77 -106q55 -18 77 -53t22 -75q0 -30 -12 -58q-13 -27 -39 -49q-26 -21 -66 -34t-95 -13v0q-66 0 -117 21q-51 20 -103 69l60 61q26 -25 69 -46q42 -20 94 -20
q29 0 50.5 7.5t35.5 18.5q14 12 20.5 25t6.5 24q0 10 -5 21q-5 12 -17 22q-11 10 -31 17q-19 7 -48 7h-81v81h56q52 0 79 22q27 21 27 49q0 33 -28 45.5t-59 12.5q-11 0 -23 -2q-35 -4 -65 -17q-29 -14 -53 -34z" />
    <glyph glyph-name="uni0438" unicode="&#x438;" horiz-adv-x="562" 
d="M159 500v-358l244 358h94v-500h-94v358l-244 -358h-94v500h94z" />
    <glyph glyph-name="uni0439" unicode="&#x439;" horiz-adv-x="562" 
d="M159 500v-358l244 358h94v-500h-94v358l-244 -358h-94v500h94zM178 705q8 -13 18 -25q10 -13 22.5 -23t29.5 -16q16 -6 38 -6t39 6q16 6 29 16t23 23q9 12 18 25l68 -50q-29 -45 -74 -69t-103 -24q-57 0 -103 24q-45 24 -73 69z" />
    <glyph glyph-name="uni043A" unicode="&#x43a;" horiz-adv-x="536" 
d="M158 500v-242l224 242h116l-188 -202l210 -298h-115l-160 227l-87 -93v-134h-93v500h93z" />
    <glyph glyph-name="uni043B" unicode="&#x43b;" horiz-adv-x="573" 
d="M507 500v-500h-94v414h-188v-138v-1q0 -146 -37.5 -215.5t-111.5 -69.5q-10 0 -26 1q-15 1 -34 8v81q5 -2 14 -5q10 -2 21 -2q26 0 42 15t25 46q8 32 11 80t3 113v5l-1 168h376z" />
    <glyph glyph-name="uni043C" unicode="&#x43c;" horiz-adv-x="678" 
d="M156 500l183 -367l183 367h91v-500h-93v317l-158 -317h-46l-158 317v-317h-93v500h91z" />
    <glyph glyph-name="uni043D" unicode="&#x43d;" horiz-adv-x="562" 
d="M159 500v-192h244v192h94v-500h-94v222h-244v-222h-94v500h94z" />
    <glyph glyph-name="uni043E" unicode="&#x43e;" horiz-adv-x="610" 
d="M305 510q58 0 106 -19q49 -20 84 -54q36 -35 55 -83q20 -47 20 -104q0 -56 -20 -104t-55 -82q-35 -35 -84 -54q-48 -20 -106 -20q-57 0 -106 20q-49 19 -84 54q-35 34 -55 82t-20 104q0 57 20 104q20 48 55 83q35 34 84 54q48 19 106 19zM305 424q-37 0 -68 -13t-53 -37
q-23 -23 -36 -55q-12 -31 -12 -69q0 -37 13 -69q12 -32 34.5 -55t53.5 -36.5t68 -13.5t68 13.5t53.5 36.5t35.5 55q12 32 12 69q0 38 -12 69q-13 32 -36 55q-22 24 -53 37t-68 13z" />
    <glyph glyph-name="uni043F" unicode="&#x43f;" horiz-adv-x="562" 
d="M497 500v-500h-94v414h-244v-414h-94v500h432z" />
    <glyph glyph-name="uni0440" unicode="&#x440;" horiz-adv-x="604" 
d="M333 510q50 0 92.5 -19.5t73 -54t47.5 -82.5q18 -48 18 -104t-18 -104q-17 -48 -47.5 -82.5t-73 -54t-92.5 -19.5q-53 0 -98 22t-77 62v-274h-93v700h93v-74q32 40 77 62t98 22zM203 126q21 -24 49 -37t61.5 -13t61.5 13q29 13 49 37q21 23 32 55q12 31 12 69t-11.5 69.5
t-32.5 54.5q-20 24 -49 37q-28 13 -61.5 13t-61.5 -13t-49 -37q-20 -23 -32 -54.5t-12 -69.5t12 -69q12 -32 32 -55z" />
    <glyph glyph-name="uni0441" unicode="&#x441;" horiz-adv-x="531" 
d="M305 510q60 0 109 -20q50 -21 86 -58l-66 -66q-23 27 -56 43q-33 15 -73 15q-37 0 -68 -13t-53 -37q-23 -23 -36 -55q-12 -31 -12 -69q0 -37 13 -69q12 -32 34.5 -55t53.5 -36.5t68 -13.5q40 0 73 16q34 15 56 43l66 -66q-36 -37 -85.5 -58t-109.5 -21q-57 0 -106 20
q-49 19 -84 54q-35 34 -55 82t-20 104q0 57 20 104q20 48 55 83q35 34 84 54q48 19 106 19z" />
    <glyph glyph-name="uni0442" unicode="&#x442;" horiz-adv-x="492" 
d="M31 500h431v-87h-169v-413h-94v413h-168v87z" />
    <glyph glyph-name="uni0443" unicode="&#x443;" horiz-adv-x="557" 
d="M25 500h102l152 -359l151 359h102l-210 -500q-19 -45 -37 -82t-40 -63t-49 -41q-28 -14 -65 -14q-27 0 -54 10v85q9 -4 20.5 -6t20.5 -2q4 0 9 1q20 1 34 12q14 10 24 26q11 16 19 36q8 19 16 39l8 19z" />
    <glyph glyph-name="uni0444" unicode="&#x444;" horiz-adv-x="738" 
d="M415 740v-240q64 0 116 -18q52 -17 89 -50q37 -32 57 -79q20 -46 20 -104t-20 -104t-57 -78t-89 -49t-116 -17v-201h-92v201q-64 0 -116 17t-89 49t-57 78t-20 104t20 104q20 47 57 79q37 33 89 50q52 18 116 18v240h92zM323 414q-85 0 -136 -41t-51 -124t51 -123
t136 -40v328zM415 86q85 0 136 40t51 123t-51 124t-136 41v-328z" />
    <glyph glyph-name="uni0445" unicode="&#x445;" horiz-adv-x="565" 
d="M40 500h116l126 -165l127 165h116l-185 -240l199 -260h-115l-142 184l-141 -184h-115l199 260z" />
    <glyph glyph-name="uni0446" unicode="&#x446;" horiz-adv-x="603" 
d="M159 500v-413h236v413h94v-414h94v-231h-94v145h-424v500h94z" />
    <glyph glyph-name="uni0447" unicode="&#x447;" horiz-adv-x="545" 
d="M155 500v-185q0 -46 24 -65q24 -20 80 -20q35 0 66 7t61 19v244h94v-500h-94v169q-35 -13 -69 -19t-76 -6q-40 0 -73 12q-34 13 -57 35q-24 23 -37 55q-13 31 -13 69v185h94z" />
    <glyph glyph-name="uni0448" unicode="&#x448;" horiz-adv-x="774" 
d="M159 500v-414h179v414h94v-414h183v414h94v-500h-644v500h94z" />
    <glyph glyph-name="uni0449" unicode="&#x449;" horiz-adv-x="823" 
d="M159 500v-414h179v414h94v-414h183v414h94v-414h94v-231h-94v145h-644v500h94z" />
    <glyph glyph-name="uni044A" unicode="&#x44a;" horiz-adv-x="632" 
d="M255 500v-170h169q74 0 117 -44t43 -121q0 -76 -43 -121q-43 -44 -117 -44h-263v414h-129v86h223zM416 86q30 0 51 24t21 60q0 33 -19 53.5t-53 20.5h-161v-158h161z" />
    <glyph glyph-name="uni044B" unicode="&#x44b;" horiz-adv-x="713" 
d="M648 500v-500h-94v500h94zM160 500v-170h168q75 0 117 -44q43 -44 43 -121v0q0 -76 -43 -121q-43 -44 -117 -44h-262v500h94zM160 86h161q29 0 50 24t21 60q0 33 -19 53.5t-52 20.5h-161v-158z" />
    <glyph glyph-name="uni044C" unicode="&#x44c;" horiz-adv-x="536" 
d="M160 500v-170h168q75 0 117 -44q43 -44 43 -121v0q0 -76 -43 -121q-43 -44 -117 -44h-262v500h94zM160 86h161q29 0 50 24t21 60q0 33 -19 53.5t-52 20.5h-161v-158z" />
    <glyph glyph-name="uni044D" unicode="&#x44d;" horiz-adv-x="541" 
d="M56 447q35 30 80 46q46 17 99 17q58 0 106 -19q49 -20 84 -54q36 -35 55 -83q20 -47 20 -104v0q0 -56 -20 -104t-55 -82q-35 -35 -84 -54q-48 -20 -106 -20q-62 0 -113 22t-87 62l62 62q25 -26 62 -43t79 -17q35 0 66 13q30 14 53 37q22 23 35 55q12 32 12 69
q0 38 -12 69q-13 32 -35 55q-23 24 -54 37t-68 13q-34 0 -63 -11t-51 -31zM323 296v-86h-209v86h209z" />
    <glyph glyph-name="uni044E" unicode="&#x44e;" horiz-adv-x="795" 
d="M159 500v-207h69q7 48 30 88q22 40 56 69q34 28 79 44t97 16q58 0 106 -19q49 -20 84 -54q35 -35 55 -83q20 -47 20 -104q0 -56 -20 -104t-55 -82q-35 -35 -84 -54q-49 -20 -106 -20q-52 0 -97 16q-44 16 -79 45q-34 28 -56.5 68t-29.5 88h-69v-207h-94v500h94zM490 424
q-37 0 -68 -13t-54 -37q-22 -23 -34.5 -54.5t-12.5 -69.5q0 -37 12 -69q13 -32 36 -55q22 -23 53 -37q31 -13 68 -13t68 13.5t53.5 36.5t34.5 55q13 32 13 69q0 38 -12 69q-13 32 -36 55q-22 24 -53 37t-68 13z" />
    <glyph glyph-name="uni044F" unicode="&#x44f;" horiz-adv-x="556" 
d="M491 500v-500h-94v170h-116q-9 -30 -22.5 -62t-34 -58t-50.5 -43t-73 -17q-11 0 -26 2t-29 8v83q12 -3 23 -5t23 -2q39 0 60 26.5t34 71.5q-56 13 -86 53q-31 41 -31 106q0 76 43 122q42 45 116 45h263zM236 414q-29 0 -50 -22q-21 -21 -21 -59q0 -36 21 -57
q20 -20 50 -20h161v158h-161z" />
    <glyph glyph-name="uni0451" unicode="&#x451;" horiz-adv-x="584" 
d="M292 510q54 0 100.5 -19.5t80 -54t51.5 -82.5q19 -47 19 -104v-36h-313v80h215q-12 59 -52 95q-41 36 -101 36q-36 0 -64.5 -13t-48.5 -36q-21 -23 -32 -54t-11 -68q0 -39 13 -71q12 -33 35 -57q23 -23 54 -37q31 -13 68 -13q31 0 55 8.5t41 19.5q18 11 29 23
q12 12 18 19l70 -51q-25 -31 -50 -51t-51 -32t-54 -17q-29 -5 -62 -5q-56 0 -104 19.5t-83 54.5t-55 83t-20 105q0 56 19 103t52 82q34 34 80 54q46 19 101 19zM150 700h94v-94h-94v94zM338 700h94v-94h-94v94z" />
    <glyph glyph-name="uni0452" unicode="&#x452;" horiz-adv-x="583" 
d="M207 700v-157h174v-82h-174v-158q18 30 52 50.5t86 20.5q38 0 69.5 -12t54.5 -36t36 -60.5t13 -86.5v0v-245q0 -83 -39 -123q-38 -40 -126 -40h-3h-17v82q5 -1 10 -1h7q35 0 54.5 24t19.5 75v211q0 66 -22.5 96t-69.5 30q-56 0 -90 -46t-34 -103v-139h-94v461h-74v82h74
v157h93z" />
    <glyph glyph-name="uni0453" unicode="&#x453;" horiz-adv-x="453" 
d="M271 740l74 -62l-141 -107l-46 34zM403 500v-87h-244v-413h-94v500h338z" />
    <glyph glyph-name="uni0454" unicode="&#x454;" horiz-adv-x="549" 
d="M424 382q-22 20 -51 31t-63 11q-37 0 -68 -13t-53 -37q-23 -23 -35 -55q-13 -31 -13 -69q0 -37 13 -69q12 -32 35 -55q22 -23 53 -37q30 -13 66 -13q42 0 79 17t61 43l62 -62q-36 -39 -87 -62q-51 -22 -113 -22v0q-57 0 -106 20q-48 19 -84 54q-35 34 -55 82t-20 104
q0 57 20 104q20 48 55 83q35 34 84 54q49 19 106 19q54 0 99 -17q46 -16 80 -46zM431 296v-86h-208v86h208z" />
    <glyph glyph-name="uni0455" unicode="&#x455;" horiz-adv-x="453" 
d="M228 510q43 0 79 -12q36 -11 71 -36l-45 -72q-45 31 -102 35q-33 0 -52 -14t-19 -42v-1q0 -24 18 -42q19 -17 69 -37q77 -32 111 -67q34 -36 34 -83q0 -31 -13 -58q-13 -28 -36 -48q-22 -20 -52 -31q-31 -12 -65 -12v0q-66 0 -112.5 14.5t-78.5 35.5l41 76q34 -20 66 -30
t75 -10q33 0 56 17t23 41q0 28 -27 45q-28 17 -66 34l-25 12q-60 28 -87 65q-27 36 -27 85q0 65 43 100q44 35 120 35h1z" />
    <glyph glyph-name="uni0456" unicode="&#x456;" horiz-adv-x="224" 
d="M65 700h94v-94h-94v94zM159 500v-500h-94v500h94z" />
    <glyph glyph-name="uni0457" unicode="&#x457;" horiz-adv-x="224" 
d="M80 700v-94h-89v94h89zM233 700v-94h-89v94h89zM159 500v-500h-94v500h94z" />
    <glyph glyph-name="uni0458" unicode="&#x458;" horiz-adv-x="226" 
d="M66 700h94v-94h-94v94zM160 500v-500q0 -96 -45 -148t-122 -52q-12 0 -20 1t-11 2v83q9 -1 19 -1q28 0 45 9q16 9 25 25t12 37t3 44v500h94z" />
    <glyph glyph-name="uni0459" unicode="&#x459;" horiz-adv-x="883" 
d="M507 500v-170h168q75 0 117 -44q43 -44 43 -121q0 -76 -43 -120.5t-117 -44.5h-262v414h-188v-138v-1q0 -146 -38 -215q-38 -70 -111 -70v0q-10 0 -26 1q-15 1 -34 8v81q5 -2 14 -5q10 -2 21 -2q26 0 42 15t24 46q9 32 11.5 81t2.5 117v168h376zM668 86q29 0 50 24t21 60
q0 33 -19 53.5t-52 20.5h-161v-158h161z" />
    <glyph glyph-name="uni045A" unicode="&#x45a;" horiz-adv-x="874" 
d="M159 500v-192h244v192h94v-170h168q75 0 117 -44q43 -44 43 -121q0 -76 -43 -121q-43 -44 -117 -44h-262v222h-244v-222h-94v500h94zM497 86h161q29 0 50 24t21 60q0 33 -19 53.5t-52 20.5h-161v-158z" />
    <glyph glyph-name="uni045B" unicode="&#x45b;" horiz-adv-x="594" 
d="M206 740v-195h188v-84h-188v-163q28 37 64.5 61.5t80.5 28.5h17q31 0 56 -11q31 -15 54 -40q24 -25 37 -64q14 -38 14 -91v-182h-94v164q0 70 -25 102q-26 33 -70 33q-56 0 -94 -50q-39 -49 -39 -99v-150h-94v461h-78v84h78v195h93z" />
    <glyph glyph-name="uni045C" unicode="&#x45c;" horiz-adv-x="536" 
d="M304 740l74 -62l-141 -107l-45 34zM158 500v-242l224 242h116l-188 -202l210 -298h-115l-160 227l-87 -93v-134h-93v500h93z" />
    <glyph glyph-name="uni045E" unicode="&#x45e;" horiz-adv-x="557" 
d="M168 705q8 -13 18 -25q9 -13 22 -23t29 -16q17 -6 39 -6t39 6q16 6 29 16t22 23q10 12 18 25l69 -50q-29 -45 -74 -69t-103 -24t-103 24t-74 69zM25 500h102l152 -359l151 359h102l-210 -500q-19 -45 -37 -82t-40 -63t-49 -41q-28 -14 -65 -14q-27 0 -54 10v85
q9 -4 20.5 -6t20.5 -2q4 0 9 1q20 1 34 12q14 10 24 26q11 16 19 36q8 19 16 39l8 19z" />
    <glyph glyph-name="uni045F" unicode="&#x45f;" horiz-adv-x="562" 
d="M159 500v-414h244v414h94v-500h-170l-1 -121h-90v121h-171v500h94z" />
    <glyph glyph-name="uni0490" unicode="&#x490;" horiz-adv-x="507" 
d="M467 830v-220h-292v-610h-100v700h298v130h94z" />
    <glyph glyph-name="uni0491" unicode="&#x491;" horiz-adv-x="453" 
d="M403 618v-205h-244v-413h-94v500h252v118h86z" />
    <glyph glyph-name="uni04D4" unicode="&#x4d4;" horiz-adv-x="910" 
d="M851 700v-90h-307v-197h265v-90h-265v-233h320v-90h-420v184h-244l-122 -184h-113l466 700h420zM444 274v276l-184 -276h184z" />
    <glyph glyph-name="uni04D5" unicode="&#x4d5;" horiz-adv-x="960" 
d="M77 448q48 32 96.5 47t99.5 15v0q64 0 112.5 -23t82.5 -73q39 51 93 73q55 23 111 23q55 0 99.5 -19.5t76.5 -54t49 -82.5q17 -47 17 -104v-36h-309v80h211q-10 59 -47 95t-97 36q-35 0 -64.5 -12.5t-51.5 -34.5q-21 -22 -34 -52t-14 -65v-13q1 -38 16 -69q14 -32 37 -55
q24 -22 55 -35t66 -13q52 0 85 17q33 16 63 53l61 -57q-37 -47 -85 -73q-47 -26 -118 -26q-75 0 -129 29q-54 28 -91 82q-34 -55 -94.5 -83t-146.5 -28q-39 0 -72 11.5t-57 32.5q-25 21 -39 50.5t-14 65.5t14 62q14 27 38 46q24 18 57 27t72 9h99l-1 -80h-98h-1
q-84 0 -84 -59q0 -37 28 -57t67 -20q56 0 91 17q36 16 57 43q21 26 29 59q8 32 8 64q0 68 -27.5 104t-69.5 48q-24 7 -51 7h-3q-29 0 -56 -6q-28 -7 -52 -18t-40 -25z" />
    <glyph glyph-name="uni1E24" unicode="&#x1e24;" horiz-adv-x="710" 
d="M175 700v-277h360v277h100v-700h-100v333h-360v-333h-100v700h100zM405 -67v-100h-100v100h100z" />
    <glyph glyph-name="uni1E25" unicode="&#x1e25;" 
d="M159 740v-316q25 33 65 60q39 26 97 26q36 0 68 -13t55.5 -38.5t36.5 -63.5q14 -39 14 -89v-306h-94v306q0 59 -24.5 89t-67.5 30q-28 0 -55 -11.5t-48 -29t-34 -39.5q-13 -21 -13 -41v-1v2v-305h-94v740h94zM329 -67v-100h-100v100h100z" />
    <glyph glyph-name="uni1E36" unicode="&#x1e36;" horiz-adv-x="483" 
d="M175 700v-610h292v-90h-392v700h100zM320 -67v-100h-100v100h100z" />
    <glyph glyph-name="uni1E37" unicode="&#x1e37;" horiz-adv-x="230" 
d="M162 740v-740h-94v740h94zM165 -67v-100h-100v100h100z" />
    <glyph glyph-name="uni2010" unicode="&#x2010;" horiz-adv-x="390" 
d="M325 290v-80h-260v80h260z" />
    <glyph glyph-name="endash" unicode="&#x2013;" horiz-adv-x="620" 
d="M535 335v-80h-450v80h450z" />
    <glyph glyph-name="emdash" unicode="&#x2014;" horiz-adv-x="977" 
d="M912 335v-80h-847v80h847z" />
    <glyph glyph-name="quoteleft" unicode="&#x2018;" horiz-adv-x="245" 
d="M65 480v100l69 120h46l-40 -120h25v-100h-100z" />
    <glyph glyph-name="quoteright" unicode="&#x2019;" horiz-adv-x="245" 
d="M180 700v-100l-69 -120h-46l40 120h-25v100h100z" />
    <glyph glyph-name="quotesinglbase" unicode="&#x201a;" horiz-adv-x="231" 
d="M166 100v-100l-69 -120h-46l40 120h-25v100h100z" />
    <glyph glyph-name="quotedblleft" unicode="&#x201c;" horiz-adv-x="435" 
d="M255 480v100l68 120h46l-39 -120h25v-100h-100zM65 480v100l69 120h46l-40 -120h25v-100h-100z" />
    <glyph glyph-name="quotedblright" unicode="&#x201d;" horiz-adv-x="435" 
d="M180 700v-100l-69 -120h-46l40 120h-25v100h100zM369 700v-100l-68 -120h-46l39 120h-25v100h100z" />
    <glyph glyph-name="quotedblbase" unicode="&#x201e;" horiz-adv-x="435" 
d="M180 100v-100l-69 -120h-46l40 120h-25v100h100zM369 100v-100l-68 -120h-46l39 120h-25v100h100z" />
    <glyph glyph-name="dagger" unicode="&#x2020;" horiz-adv-x="482" 
d="M40 547l169 -15l-15 168h98l-15 -168l165 15v-98l-165 15l15 -166l-17 -398h-64l-17 398l15 166l-169 -15v98z" />
    <glyph glyph-name="daggerdbl" unicode="&#x2021;" horiz-adv-x="552" 
d="M75 547l169 -15l-15 168h98l-15 -168l165 15v-98l-165 15l15 -164l-15 -164l165 15v-98l-165 15l15 -168h-98l15 168l-169 -15v98l169 -15l-15 164l15 164l-169 -15v98z" />
    <glyph glyph-name="bullet" unicode="&#x2022;" horiz-adv-x="415" 
d="M206 341q46 0 70 -26t24 -64q0 -37 -25 -63.5t-69 -26.5q-43 0 -67 26.5t-24 63.5q0 38 23 64t68 26z" />
    <glyph glyph-name="ellipsis" unicode="&#x2026;" horiz-adv-x="693" 
d="M166 100v-100h-100v100h100zM397 100v-100h-100v100h100zM628 100v-100h-100v100h100z" />
    <glyph glyph-name="minute" unicode="&#x2032;" horiz-adv-x="287" 
d="M222 700l-36 -100l-57 -120h-64l31 120l36 100h90z" />
    <glyph glyph-name="second" unicode="&#x2033;" horiz-adv-x="473" 
d="M222 700l-36 -100l-57 -120h-64l31 120l36 100h90zM407 700l-36 -100l-56 -120h-64l30 120l36 100h90z" />
    <glyph glyph-name="guilsinglleft" unicode="&#x2039;" horiz-adv-x="373" 
d="M282 384l-127 -134l127 -134l-47 -47l-170 181l170 181z" />
    <glyph glyph-name="guilsinglright" unicode="&#x203a;" horiz-adv-x="373" 
d="M138 431l170 -181l-170 -181l-47 47l127 134l-127 134z" />
    <glyph glyph-name="uni2052" unicode="&#x2052;" 
d="M494 700l-345 -700h-84l345 700h84zM130 700q30 0 48 -17q17 -18 17 -48q0 -29 -17 -47q-18 -18 -48 -18q-29 0 -46 18q-18 18 -18 47q0 30 18 48q17 17 46 17zM429 130q30 0 47.5 -17.5t17.5 -47.5q0 -29 -17.5 -47t-47.5 -18q-29 0 -47 18t-18 47q0 30 18 47.5t47 17.5
z" />
    <glyph glyph-name="uni2116" unicode="&#x2116;" horiz-adv-x="1086" 
d="M173 700l360 -530v530h98v-700h-98l-360 531v-531h-98v700h98zM866 669q34 0 64 -11.5t52.5 -32.5t35 -50.5t12.5 -65.5t-12.5 -65.5t-34.5 -50.5t-52 -32.5t-65 -11.5t-65.5 11.5t-52.5 32.5t-34.5 50.5t-12.5 65.5t12.5 65.5t34 50.5t52 32.5t66.5 11.5zM802 573
q-23 -24 -23 -64t23 -64q24 -23 64 -23t64 23q24 24 24 64t-24 64t-64 24t-64 -24zM1031 268v-73h-294v73h294z" />
    <glyph glyph-name="minus" unicode="&#x2212;" horiz-adv-x="580" 
d="M515 365v-80h-450v80h450z" />
    <glyph glyph-name="uni27E8" unicode="&#x27e8;" horiz-adv-x="364" 
d="M354 -157h-81l-193 480l193 479h81l-193 -479z" />
    <glyph glyph-name="uni27E9" unicode="&#x27e9;" horiz-adv-x="364" 
d="M10 802h81l193 -479l-193 -480h-81l193 480z" />
    <glyph glyph-name="uni0308.case" horiz-adv-x="381" 
d="M141 864v-100h-100v100h100zM341 864v-100h-100v100h100z" />
    <glyph glyph-name="uni0307.case" horiz-adv-x="181" 
d="M140 835v-100h-100v100h100z" />
    <glyph glyph-name="brevecyr" horiz-adv-x="434" 
d="M109 705q8 -13 18 -25q10 -13 22.5 -23t29.5 -16q16 -6 38 -6t39 6q16 6 29 16t23 23q9 12 18 25l68 -50q-29 -45 -74 -69t-103 -24q-57 0 -103 24q-45 24 -73 69z" />
    <glyph glyph-name="brevecyr.case" horiz-adv-x="435" 
d="M109 868q12 -14 22 -24q10 -11 22 -19q12 -7 27.5 -11t37.5 -4t37 4t27 11q12 8 22 19q10 10 22 24l68 -50q-28 -44 -73 -63q-46 -19 -103.5 -19t-102.5 19q-46 19 -74 63z" />
    </font>
</defs>
</svg>
