<?xml version="1.0" standalone="no"?>
<!DOCTYPE svg PUBLIC "-//W3C//DTD SVG 20010904//EN"
 "http://www.w3.org/TR/2001/REC-SVG-20010904/DTD/svg10.dtd">
<svg version="1.0" xmlns="http://www.w3.org/2000/svg"
 width="700.000000pt" height="700.000000pt" viewBox="0 0 700.000000 700.000000"
 preserveAspectRatio="xMidYMid meet">
<metadata>
Created by potrace 1.14, written by Peter Selinger 2001-2017
</metadata>
<g transform="translate(0.000000,700.000000) scale(0.100000,-0.100000)"
fill="#000000" stroke="none">
<path d="M1813 5455 c-17 -41 -8 -295 14 -395 30 -136 108 -352 163 -455 9
-16 29 -55 45 -85 35 -66 160 -259 203 -315 18 -22 35 -45 39 -50 12 -15 122
-144 164 -190 77 -85 163 -181 178 -196 9 -9 68 -72 131 -140 63 -68 148 -159
189 -201 41 -43 68 -78 60 -78 -12 0 -235 45 -264 54 -59 17 -102 31 -110 36
-5 4 -28 13 -50 20 -65 20 -261 126 -343 185 -101 73 -215 175 -282 253 -30
35 -62 71 -71 80 -8 9 -38 50 -66 90 l-52 74 -29 -59 c-94 -186 -131 -384
-127 -673 3 -182 19 -293 65 -447 124 -418 398 -779 770 -1012 190 -120 472
-231 648 -257 20 -3 42 -7 49 -9 49 -16 339 -24 455 -11 190 20 389 73 547
147 46 21 85 39 86 39 2 0 30 -37 64 -82 81 -111 101 -132 158 -168 173 -110
389 -86 529 58 128 131 147 367 43 518 -28 42 -62 79 -198 217 -48 50 -72 80
-65 85 23 14 122 220 158 327 51 156 73 298 74 485 1 86 -1 166 -5 178 -5 21
-11 22 -98 22 -93 0 -93 0 -137 -37 -77 -64 -186 -101 -293 -97 -22 1 -55 2
-72 3 -42 1 -42 15 -1 32 92 38 217 138 301 240 37 46 37 46 90 41 78 -7 333
-7 407 1 160 17 328 64 367 103 24 24 24 26 8 44 -18 20 -39 26 -115 35 -128
15 -521 112 -543 134 -4 4 32 16 80 25 293 57 495 152 630 296 37 39 42 65 14
80 -13 6 -152 10 -384 10 l-364 0 -22 82 c-40 145 -122 282 -237 395 -167 166
-380 244 -649 238 -294 -6 -508 -117 -686 -357 -126 -170 -180 -353 -173 -592
4 -125 15 -152 100 -241 84 -89 371 -390 429 -450 473 -492 588 -614 612 -649
30 -45 50 -101 56 -159 3 -25 12 -58 21 -73 8 -16 79 -94 156 -174 343 -350
369 -379 379 -417 47 -170 -109 -304 -269 -232 -54 24 -82 55 -122 134 -24 46
-71 100 -202 231 -180 180 -210 201 -321 218 -21 4 -41 8 -43 10 -2 2 -5 60
-6 128 -2 101 -7 130 -24 163 -27 54 -259 291 -302 308 -51 22 -76 8 -196
-113 -113 -115 -145 -134 -217 -132 -125 5 -201 152 -136 261 13 22 122 139
242 260 248 252 243 224 45 222 -59 -1 -117 3 -130 8 -13 5 -62 49 -109 97
-48 49 -142 145 -209 214 -168 173 -163 159 -165 451 -1 261 2 249 -72 326
-160 169 -256 273 -373 403 -41 46 -86 95 -100 110 -14 15 -54 60 -90 100 -36
40 -70 78 -75 84 -15 16 -99 123 -149 191 l-15 20 -8 -20z"/>
<path d="M4628 2023 c-49 -31 -48 -92 2 -118 38 -20 52 -19 84 6 19 15 26 30
26 55 0 59 -59 90 -112 57z"/>
</g>
</svg>
