<?xml version="1.0" encoding="utf-8"?>
<svg version="1.1" id="Layer_1" x="0px" y="0px" width="100%" viewBox="0 0 1024 1024" enable-background="new 0 0 1024 1024" xmlns="http://www.w3.org/2000/svg">
  <path fill="#010101" opacity="1.000000" stroke="none" d=" M695.702148,1024.020264 C696.000000,1024.000000 696.000000,1024.500000 696.000000,1024.750000 C695.555542,1025.000000 695.111084,1025.000000 694.333313,1025.000000 C694.468079,1024.680176 694.936157,1024.360352 695.702148,1024.020264 z"/>
  <path fill="#FFFF" opacity="1.000000" stroke="none" d=" M285.434631,248.563812 C308.996399,274.651123 332.220551,300.563110 355.692413,326.248718 C367.150879,338.787933 379.195343,350.791382 390.664062,363.321594 C392.661774,365.504181 394.072510,369.086365 394.122375,372.049591 C394.447601,391.376434 394.523438,410.713593 394.263153,430.041718 C394.126801,440.170135 397.521790,448.259583 404.685150,455.462830 C422.420197,473.296722 439.895142,491.395813 457.173004,509.673431 C461.629272,514.387634 466.163788,516.552917 472.759674,516.262085 C484.831390,515.729736 496.943359,516.110474 508.854858,516.110474 C502.843842,522.468567 497.063477,528.791443 491.058167,534.892883 C477.044189,549.131042 462.920410,563.261108 448.844147,577.437988 C441.215118,585.121460 436.336670,593.783447 438.733246,605.156982 C440.682922,614.409607 445.963104,620.919739 454.947754,623.738770 C464.430969,626.714233 473.526245,625.597229 480.945251,618.359009 C488.929688,610.569092 496.678162,602.533875 504.424957,594.504822 C513.343445,585.261414 520.979492,585.077942 530.058228,594.226013 C539.680176,603.921448 549.177673,613.740295 558.781616,623.453674 C566.548096,631.308594 570.513245,640.581055 570.181213,651.748047 C569.934021,660.063171 570.132568,668.391541 570.132568,677.005066 C573.000000,677.466980 575.753113,677.882446 578.495972,678.357300 C590.704712,680.471008 600.896667,685.996216 609.502014,695.112610 C621.963257,708.313965 635.125549,720.852600 647.641235,734.004639 C650.489685,736.997925 652.295349,741.186279 653.929504,745.096741 C660.603210,761.066650 675.173523,769.306458 691.099915,765.820679 C711.353760,761.387573 719.559326,735.634399 705.221191,719.831665 C692.361267,705.658142 678.592651,692.309998 665.248596,678.574646 C655.613220,668.656799 646.080200,658.638611 636.372192,648.792725 C632.334412,644.697510 629.923401,640.165955 629.661926,634.265747 C629.076721,621.061218 623.653381,610.200867 614.401489,600.565308 C563.639404,547.698059 513.194092,494.526794 462.542664,441.552979 C458.427338,437.248962 455.840607,432.486206 455.231171,426.659058 C451.681763,392.720490 456.169464,360.181824 475.737976,331.556549 C506.198944,286.997498 549.299377,268.397186 602.522705,274.861694 C645.323547,280.060303 677.517578,302.377136 698.760132,339.998047 C705.481812,351.902252 710.074463,364.705627 712.530029,378.888641 C714.294983,378.888641 716.066772,378.888580 717.838562,378.888641 C749.838318,378.889801 781.838074,378.890259 813.837830,378.894226 C815.337524,378.894440 816.845154,378.832520 818.335510,378.959106 C824.322510,379.467651 827.365723,384.749115 823.311340,389.017212 C816.500122,396.187561 809.212097,403.234802 801.041199,408.719879 C779.258545,423.342346 754.413025,430.237579 728.912354,435.008789 C724.081177,435.912689 719.219299,436.652283 714.110229,438.514709 C718.035583,439.914551 721.904419,441.506073 725.895447,442.683228 C752.092590,450.410095 778.633179,456.572174 805.756836,460.079468 C807.813721,460.345490 810.083008,461.013885 811.695312,462.233337 C814.759949,464.551361 815.083557,467.815979 812.032776,470.281250 C809.511230,472.318817 806.459656,473.903595 803.402222,475.043243 C776.245972,485.165710 747.950684,487.151276 719.322327,486.359924 C710.500244,486.115997 701.695312,485.293640 692.874573,484.925507 C691.459167,484.866455 689.343384,485.353760 688.661926,486.348999 C675.376282,505.749512 657.466431,519.379578 636.209656,528.924866 C635.808350,529.105042 635.503357,529.499817 634.582947,530.275024 C657.888916,533.789551 679.262756,532.067078 696.990601,515.316040 C699.670288,512.783997 701.977234,511.336639 706.007019,511.774231 C712.270203,512.454346 718.656250,512.148682 724.984863,512.012146 C727.702026,511.953522 728.762878,512.739502 729.023560,515.573303 C733.620239,565.541199 724.997375,612.636780 698.781494,655.953918 C698.265320,656.806946 697.699951,657.634644 697.101624,658.432190 C696.505981,659.226013 695.839783,659.966919 694.754333,661.272583 C697.839661,664.589661 700.921753,667.991333 704.098816,671.301941 C712.517456,680.074402 721.160828,688.638794 729.384827,697.589050 C750.905151,721.009705 749.205811,762.214417 724.282959,783.936462 C699.514404,805.524109 661.391907,803.428406 638.304382,778.385986 C632.033386,771.584106 627.115295,763.532837 621.603943,756.034668 C620.538452,754.585144 619.601929,753.040833 618.496460,751.375305 C593.547241,764.918457 567.118286,772.996094 539.451050,777.241272 C485.513855,785.517212 433.908203,777.970520 384.821686,754.089111 C319.667267,722.390564 273.989990,672.651428 248.739090,604.746887 C234.181213,565.597900 231.399078,524.926514 236.600784,483.637177 C239.347443,461.835205 245.054108,440.930481 255.951797,421.661346 C256.432404,420.811523 256.978241,419.998566 257.919983,418.481964 C301.603363,484.751556 361.856750,524.367188 440.956177,534.245361 C436.751373,529.838806 432.488922,525.485657 428.351044,521.017212 C401.081757,491.569092 373.238434,462.624176 346.752869,432.486450 C318.908142,400.802155 296.034241,365.663635 280.407349,326.220123 C269.211609,297.961243 261.908020,268.849945 263.144531,238.147797 C263.325867,233.645477 264.636963,229.188644 265.425323,224.710754 C266.069305,224.567825 266.713318,224.424881 267.357300,224.281952 C273.304535,232.286392 279.251770,240.290848 285.434631,248.563812 M643.738464,419.143738 C654.116699,401.555176 649.233704,379.274384 632.750854,369.007477 C616.388245,358.815491 593.958557,363.714294 583.361755,379.794373 C572.556519,396.190704 577.020874,418.547577 593.310791,429.617645 C609.151855,440.382690 631.691956,435.918030 643.738464,419.143738 z"/>
  <path fill="#FFFF" opacity="1.000000" stroke="none" d=" M674.786621,744.148071 C671.217346,739.603333 670.346802,734.565979 673.705566,730.587708 C675.941956,727.938782 680.251709,725.986572 683.773865,725.741699 C688.257812,725.429932 691.711487,728.604126 693.309387,733.150146 C694.776855,737.325500 693.227356,742.384460 689.614563,745.123108 C685.219299,748.454956 680.143066,748.216980 674.786621,744.148071 z"/>
  <path fill="#010101" opacity="1.000000" stroke="none" d=" M643.512268,419.431213 C631.691956,435.918030 609.151855,440.382690 593.310791,429.617645 C577.020874,418.547577 572.556519,396.190704 583.361755,379.794373 C593.958557,363.714294 616.388245,358.815491 632.750854,369.007477 C649.233704,379.274384 654.116699,401.555176 643.512268,419.431213 z"/>
</svg>