<svg version="1.1" id="Layer_1" xmlns="http://www.w3.org/2000/svg" xmlns:xlink="http://www.w3.org/1999/xlink" x="0px" y="0px"
	 width="172px" height="100px" viewBox="0 0 1024 1024" enable-background="new 0 0 1024 1024" xml:space="preserve">
<path fill="white" opacity="1.000000" stroke="none"
	  d="
M493.210327,265.252319
	C496.215942,260.220306 499.035400,255.501602 501.839172,250.773605
	C506.959778,242.138641 514.348083,242.053894 519.626465,250.731583
	C531.916138,270.936310 544.053650,291.233551 556.338684,311.441101
	C583.070740,355.412354 609.999817,399.264435 636.586365,443.323334
	C675.993103,508.627563 715.155823,574.078979 754.459839,639.445312
	C764.500671,656.144165 774.760010,672.712097 784.741150,689.446228
	C787.034058,693.290527 791.061401,697.147339 788.455017,702.166687
	C785.778748,707.320923 780.309753,705.964355 775.858704,705.971436
	C689.386230,706.108704 602.913513,706.135193 516.440857,706.167480
	C426.136139,706.201233 335.831451,706.223694 245.526733,706.221619
	C241.133743,706.221558 236.096100,707.355957 233.563828,702.251770
	C231.239227,697.566162 234.634995,694.028748 236.805557,690.389648
	C251.819427,665.216980 266.826172,640.039734 281.921143,614.915649
	C304.307220,577.656189 326.769867,540.442627 349.189697,503.203430
	C366.111603,475.096222 382.964478,446.947327 399.944458,418.875244
	C419.424011,386.670868 439.012878,354.532623 458.548462,322.362152
	C470.043823,303.432098 481.527954,284.495239 493.210327,265.252319
M616.940796,489.508606
	C581.468567,431.690552 547.165710,373.153198 510.484772,314.474426
	C439.599091,432.024811 368.716492,547.778076 298.733582,665.108582
	C440.464355,665.108582 580.882629,665.108582 722.689026,665.108582
	C687.729309,605.769165 652.630188,547.885315 616.940796,489.508606
z"/>
	<path fill="white" opacity="1.000000" stroke="none"
		  d="
M443.841675,607.144775
	C439.572205,602.000854 435.458466,597.189819 432.128815,591.772705
	C430.741425,589.515564 430.325897,587.618042 432.847260,585.767395
	C443.986908,577.590637 455.062958,569.327332 466.188385,561.131104
	C466.816681,560.668274 467.679779,560.524048 468.746063,560.110168
	C471.786011,564.770569 474.357697,569.604431 477.815704,573.873779
	C497.727478,598.457336 539.744751,593.927979 553.068848,565.691345
	C561.671814,547.459717 549.645813,527.813477 529.458923,527.390930
	C517.636230,527.143494 505.804657,527.294067 493.977112,527.309082
	C470.505798,527.338806 455.226135,514.606506 444.108582,495.365784
	C443.318024,493.997681 443.096191,492.621552 443.788849,491.089447
	C450.198944,476.910919 457.465790,463.398804 469.218475,452.655426
	C481.339783,441.575012 495.401123,436.034241 511.702515,435.464874
	C524.599670,435.014374 536.871399,437.289032 548.501648,442.887238
	C550.267578,443.737244 552.242676,444.323395 554.132935,446.895142
	C540.267639,457.885895 526.387878,468.888123 512.315002,480.043427
	C514.886902,482.272064 516.977417,481.575287 518.882507,481.619873
	C529.851746,481.876801 540.953247,480.634003 551.742676,483.114105
	C579.292419,489.446838 595.466553,507.794250 602.079285,534.298950
	C610.015625,566.108521 595.963562,599.147583 567.786682,619.251892
	C532.746765,644.252930 477.950500,643.341980 443.841675,607.144775
z"/>
</svg>
